<svg id="Layer_1" data-name="Layer 1" xmlns="http://www.w3.org/2000/svg" viewBox="0 0 830 280"><defs><style>.cls-1{fill:#1a2b34;}.cls-2,.cls-8{fill:#fff;}.cls-2{stroke:#231f20;stroke-miterlimit:10;}.cls-3{fill:#f5b9a5;}.cls-4{fill:#e8987c;}.cls-5{fill:#1c75bc;}.cls-6{fill:#3c2415;}.cls-7{fill:#8d4939;}.cls-9{fill:#e6e7e8;}.cls-10{fill:#231f20;}.cls-11{fill:#e6807d;}.cls-12{fill:#fefefe;}.cls-13{fill:#25130f;}.cls-14{fill:#48281c;}.cls-15{fill:#1f153a;}.cls-16{fill:#0b0607;}.cls-17{fill:#d1d3d4;}.cls-18{fill:#939598;}.cls-19{fill:#ea5f5e;}.cls-20{fill:#4ab097;}.cls-21{fill:#077cba;}.cls-22{fill:#9a9c9b;}</style></defs><rect class="cls-1" width="830" height="280"/><path class="cls-2" d="M79.78,120.06s-9.81-.72-6.9,11.68,9.7,9.73,9.7,9.73S84.62,121.1,79.78,120.06Z"/><path class="cls-3" d="M164.05,113.27s-1.94,12.17,2.4,13.9,9.16,1.41,12.84,3.75,8.23,13,8.23,13,.13,8.76-7.89,10.23-32.63-.67-32.63-.67l-18,1.19-10.36-2.13,4.41-19.65s8.36-.47,10.3-5.82S135,113.27,135,113.27,157.83,109.92,164.05,113.27Z"/><path class="cls-4" d="M135.63,115.21s.33,18.92,14,18.38,13.58-19.92,13.58-19.92S137.37,111.73,135.63,115.21Z"/><path class="cls-3" d="M97.88,192.25S88.79,206,84.15,211.74,68.29,224.87,65.57,225s-4.65-.61-8.69-8.08-4.65-24.49-3.08-39.33S60,142,60,142s.36-.43.06-4,.48-7.12,1.27-8.39,1.38-1.5,3.85-4.34,14.65-3.13,14.65-3.13c2.69-.14,2.15,5,.53,4.76a9,9,0,0,0-3.84.81s3,2,3.74,2.53,1.21.9.6,2.93a5.18,5.18,0,0,1-1.61,2.72s-1.11,2.63-1.72,3.74a2,2,0,0,1-1.71,1.08A8.25,8.25,0,0,1,74,145c-1.62,1.81-4.14.7-4.14.7s-.41,6.27-.61,10.41.81,17.26,1.32,22A71.59,71.59,0,0,0,72,186.9l.41-.7,2.26-3.75c.92-1.52,1.92-3.17,2.78-4.53,2.22-3.54,7.27-6.87,7.27-6.87Z"/><path class="cls-5" d="M122.82,131.77s6.76,17.17,28.78,15.55S178.66,129,178.66,129a68.36,68.36,0,0,1,29.18,24.84c11.61,18,11.1,21.31,11.1,21.31l-13.53,15.55-15.95-6.87-19.79,5.76-20,5.45L120.5,182.86l-6.26-8.58s-16.16,16.26-16.06,20.8c-1.11-1.82-8.78-16-19-23.93,0,0,13.73-21.81,26-29.69S118.78,132.68,122.82,131.77Z"/><path class="cls-6" d="M98.19,195.36l-.39-.05c-.1-.16-.25-.43-.45-.78C91.24,184,85,176.28,78.93,171.5l-.32-.25.21-.33c.14-.22,13.93-22,26.09-29.83s13.69-8.82,17.81-9.75l.37-.08.14.35c.06.16,6.32,15.37,25.53,15.38.91,0,1.84,0,2.8-.11,21.44-1.57,26.62-17.8,26.67-18l.14-.46.45.17a69.48,69.48,0,0,1,29.39,25c11.37,17.61,11.22,21.26,11.17,21.61l0,.13-.08.1-13.75,15.79-16.1-6.93-19.64,5.71-20.14,5.5-29.44-12.33-6-8.26c-4.68,4.76-15.64,16.63-15.56,20.11Zm22.59-12.86,28.93,12.12,19.84-5.42,19.94-5.79,15.8,6.8L218.51,175c0-.69-.77-5-11-20.9a68.76,68.76,0,0,0-28.56-24.49c-1,2.72-7.29,16.66-27.28,18.13-1,.07-1.95.11-2.88.11-18.17,0-25.11-13.25-26.19-15.59-3.7.87-5.27,1.88-17.17,9.55C94.21,149,81.57,168.28,79.78,171.05c6.06,4.84,12.18,12.5,18.19,22.8,1.94-5.73,15.34-19.26,16-19.88l.37-.37Z"/><path class="cls-4" d="M76.7,200.19c-1.57,4.1-2.66,4.76-3.09,4.91,0,0-1.07-13.73-1.58-18.2.47-.8,1.73-2.9,2.67-4.45C75.5,185.7,78,196.72,76.7,200.19Z"/><path class="cls-7" d="M73.6,205a35.43,35.43,0,0,1-.86-4.53c-.12-.75-.19-1.51-.28-2.27l-.2-2.27-.13-2.28c0-.76-.07-1.51-.07-2.28s0-1.52,0-2.28l0-1.14v-.57a2.41,2.41,0,0,0,0-.55l.16-.24a5.35,5.35,0,0,1,.17,1.31q.09.57.15,1.14c.09.75.17,1.51.24,2.27.15,1.52.27,3,.39,4.56.21,3,.38,6.08.55,9.12Z"/><path class="cls-7" d="M76.11,127.81c-1.1,0-2.18,0-3.25-.07l-1.61-.06a5,5,0,0,0-1.59.13,1.89,1.89,0,0,1,.75-.34,4.81,4.81,0,0,1,.82-.13,13,13,0,0,1,1.65,0A15.42,15.42,0,0,1,76.11,127.81Z"/><path class="cls-7" d="M70.57,133.85c1.47.22,2.91.55,4.35.9.71.18,1.43.37,2.14.57s1.41.42,2.14.59a11.81,11.81,0,0,1-2.22-.26c-.73-.13-1.45-.3-2.17-.47A35.86,35.86,0,0,1,70.57,133.85Z"/><path class="cls-7" d="M68.74,140.5c1.19-.05,2.36,0,3.52.05l1.75.09c.58,0,1.16.08,1.76.09A8.14,8.14,0,0,1,74,141c-.59,0-1.18,0-1.77,0A18.91,18.91,0,0,1,68.74,140.5Z"/><path class="cls-7" d="M65.85,144.62c.68.18,1.32.39,2,.56l1,.27c.33.08.66.15,1,.25a4.31,4.31,0,0,1-2.11-.09,5.13,5.13,0,0,1-1-.39A3.65,3.65,0,0,1,65.85,144.62Z"/><path class="cls-8" d="M79.83,119.37l.88,21.73A1.57,1.57,0,0,0,82,142.57a66.57,66.57,0,0,0,12.23,1.25,31.38,31.38,0,0,0,12.37-2.9,1.56,1.56,0,0,0,.92-1.43V118.56a1.56,1.56,0,0,0-1.44-1.56c-4.39-.35-17.7-1.19-25,.79A1.58,1.58,0,0,0,79.83,119.37Z"/><path class="cls-9" d="M80,121.43h27.52l-.17-3.66-22.06-.65-5,.53S78.93,120.19,80,121.43Z"/><path class="cls-10" d="M94.2,144.26A66.74,66.74,0,0,1,81.88,143a2,2,0,0,1-1.61-1.89l-.88-21.72a2,2,0,0,1,1.5-2c7.47-2,21.17-1.12,25.19-.8a2,2,0,0,1,1.85,2v20.93a2,2,0,0,1-1.17,1.83A31.91,31.91,0,0,1,94.2,144.26Zm.31-27.3a56.84,56.84,0,0,0-13.39,1.25,1.14,1.14,0,0,0-.85,1.15l.88,21.72a1.12,1.12,0,0,0,.9,1.06,66.2,66.2,0,0,0,12.15,1.24,31.08,31.08,0,0,0,12.19-2.86,1.12,1.12,0,0,0,.66-1V118.56a1.13,1.13,0,0,0-1-1.12C104,117.27,99.44,117,94.51,117Z"/><path class="cls-8" d="M78.93,116.52s-.26-2,2.35-2,26.21-.39,26.21-.39,2.77.32,1.92,2a3.73,3.73,0,0,1-2.74,1.82l-25.52.72S78.54,119.38,78.93,116.52Z"/><path class="cls-10" d="M80.44,119.15a2.07,2.07,0,0,1-1.36-.44,2.4,2.4,0,0,1-.6-2.2A2.34,2.34,0,0,1,79,114.9a2.9,2.9,0,0,1,2.27-.83c2.57,0,26-.39,26.2-.39h.06c.19,0,1.81.24,2.32,1.2a1.45,1.45,0,0,1-.06,1.4,4.17,4.17,0,0,1-3.09,2.06l-25.5.72A3.31,3.31,0,0,1,80.44,119.15Zm27-4.59c-1,0-23.65.39-26.19.39a2.07,2.07,0,0,0-1.6.53,1.38,1.38,0,0,0-.32,1v.11a1.71,1.71,0,0,0,.3,1.46,1.66,1.66,0,0,0,1.36.16l.11,0,25.53-.72h0a3.34,3.34,0,0,0,2.36-1.59.59.59,0,0,0,.06-.58C108.86,114.87,107.92,114.62,107.47,114.56Z"/><path class="cls-9" d="M260.64,160.45c-.35-.25-2.08-.47-4.89-.64-24.16-1.5-128.66-.27-137.88.64-10.3,1-11.71,7.47-11.71,7.47-2.7,4,2,80.31,3.16,87.67a2.18,2.18,0,0,0,.07.38c1,4.44,143.58,1.82,151.25-.81S264.08,162.87,260.64,160.45Zm3.15,81c-.24,2.55-.53,5.1-1,7.59a23,23,0,0,1-1,3.65,5.69,5.69,0,0,1-.81,1.55,1.15,1.15,0,0,1-.52.42,6.14,6.14,0,0,1-.84.2c-1.23.2-2.51.31-3.78.41s-2.55.2-3.83.27c-5.12.3-10.25.5-15.39.69-10.26.36-20.54.59-30.8.79s-20.55.32-30.82.37-20.55.09-30.82,0c-5.13-.05-10.27-.12-15.4-.27-2.56-.07-5.13-.17-7.68-.29s-5.12-.28-7.63-.57c-.63-.07-1.25-.16-1.85-.27-.3,0-.61-.11-.89-.18l-.3-.08C141.3,258.08,245.65,253,245.65,253s7.34-.77,12.75-10.82c4.78-8.88-1.16-68.19-2.6-81.84.48,0,1,.05,1.45.09.64,0,1.27.1,1.89.17l.46.07a2.66,2.66,0,0,1,.44.08l.21.05.11,0s.08.08.14.19a8.26,8.26,0,0,1,.55,1.72c.14.61.27,1.24.38,1.87.44,2.51.75,5.06,1,7.61.53,5.1.9,10.22,1.23,15.35.64,10.25.93,20.53.94,30.8,0,5.14-.08,10.27-.33,15.4C264.18,236.32,264,238.88,263.79,241.43Z"/><path class="cls-10" d="M265.26,218.36q0-7.73-.31-15.42c-.18-5.14-.36-10.28-.65-15.42s-.63-10.26-1.12-15.39c-.24-2.56-.5-5.12-.91-7.68-.1-.64-.22-1.27-.36-1.91a8.52,8.52,0,0,0-.6-1.95,1.58,1.58,0,0,0-.16-.27,1.31,1.31,0,0,0-.12-.15.86.86,0,0,0-.17-.13l-.33-.15-.26-.06a5.2,5.2,0,0,0-.51-.11l-.49-.08c-.65-.09-1.3-.15-1.94-.21l-1.64-.12c-4.6-.32-9.19-.44-13.79-.58-5.15-.14-10.28-.24-15.43-.3-20.56-.26-41.12,0-61.67.28-5.15.06-10.29.18-15.43.3l-15.41.41c-5.14.15-10.27.31-15.42.67-.65,0-1.29.16-1.93.25s-1.27.26-1.91.4a7.75,7.75,0,0,0-.94.27l-.93.31a16.68,16.68,0,0,0-1.77.82,11,11,0,0,0-3.07,2.39,8.45,8.45,0,0,0-1.91,3.35,3.13,3.13,0,0,0-.33.93c-.07.32-.12.63-.17.95-.09.64-.15,1.29-.2,1.93-.11,1.28-.16,2.57-.2,3.86-.08,2.57-.1,5.14-.1,7.71q0,7.71.26,15.43.48,15.41,1.3,30.81c.29,5.14.59,10.27,1,15.4.17,2.57.36,5.13.58,7.7l.19,1.94c0,.32.07.64.12,1h0c0,.17,0,.33.08.52a1.53,1.53,0,0,0,.06.22,1.13,1.13,0,0,0,.21.37,2.13,2.13,0,0,0,.22.21l.17.11a4.21,4.21,0,0,0,1.12.43c.34.09.67.16,1,.23.66.12,1.31.21,2,.3,5.17.61,10.31.78,15.46,1s10.28.27,15.43.34c20.57.22,41.13-.09,61.69-.58q15.42-.36,30.83-1c5.14-.23,10.27-.5,15.41-.88,1.28-.11,2.57-.21,3.85-.34s2.57-.25,3.87-.49a5.55,5.55,0,0,0,1-.26,2.3,2.3,0,0,0,1-.76,6.93,6.93,0,0,0,.94-1.86,24,24,0,0,0,1-3.82,77.34,77.34,0,0,0,.92-7.7c.2-2.57.33-5.14.41-7.71s.15-5.15.17-7.72S265.28,220.93,265.26,218.36Zm-.95,15.4c-.13,2.56-.28,5.12-.52,7.67s-.53,5.1-1,7.59a23,23,0,0,1-1,3.65,5.69,5.69,0,0,1-.81,1.55,1.15,1.15,0,0,1-.52.42,6.14,6.14,0,0,1-.84.2c-1.23.2-2.51.31-3.78.41s-2.55.2-3.83.27c-5.12.3-10.25.5-15.39.69-10.26.36-20.54.59-30.8.79s-20.55.32-30.82.37-20.55.09-30.82,0c-5.13-.05-10.27-.12-15.4-.27-2.56-.07-5.13-.17-7.68-.29s-5.12-.28-7.63-.57c-.63-.07-1.25-.16-1.85-.27-.3,0-.61-.11-.89-.18l-.3-.08h0l-.31-.12a.51.51,0,0,1,0,.09.09.09,0,0,0,0,.05l0-.05a.47.47,0,0,0-.06-.1l0,0,.07,0c0-.09,0-.19,0-.28,0-.31-.09-.62-.12-.94l-.21-1.9c-.25-2.54-.46-5.1-.66-7.66-.41-5.12-.76-10.25-1.1-15.37-.67-10.25-1.32-20.5-1.79-30.77-.23-5.13-.45-10.26-.58-15.4-.06-2.57-.1-5.13-.09-7.7,0-1.28,0-2.56.11-3.84,0-.64.07-1.28.14-1.92a5.81,5.81,0,0,1,.43-1.84,9.62,9.62,0,0,1,5-5.44,18.51,18.51,0,0,1,7.33-1.82c2.55-.13,5.12-.17,7.69-.22l7.7-.13c10.28-.16,20.55-.19,30.83-.28,20.55-.17,41.11-.16,61.65-.17,5.14,0,10.28,0,15.41.07q3.85,0,7.7.13c2.08.06,4.16.11,6.23.23.48,0,1,.05,1.45.09.64,0,1.27.1,1.89.17l.46.07a2.66,2.66,0,0,1,.44.08l.21.05.11,0s.08.08.14.19a8.26,8.26,0,0,1,.55,1.72c.14.61.27,1.24.38,1.87.44,2.51.75,5.06,1,7.61.53,5.1.9,10.22,1.23,15.35.64,10.25.93,20.53.94,30.8C264.65,223.5,264.56,228.63,264.31,233.76Z"/><path class="cls-3" d="M115.27,82.06s1.86,18.74,9.11,24.33,13.57,12.43,25,12.32,16.77-6.11,21.22-8.69a25.4,25.4,0,0,0,12-23.61c-.73-13.46-1.14-31.68-1.14-31.68s.93-9-4.45-14.08-15.43-8.9-26.19-8-26.71.52-30.13,9.11-5.38,23.6-5.38,26Z"/><path class="cls-4" d="M140.22,87.32c.09,0,.23,0,.27-.11,1.16-1.7,2.81-2,4.65-1.6a3.41,3.41,0,0,1,1.14.61,4,4,0,0,0,2.84.55,13.73,13.73,0,0,0,3.52-1.1,4.87,4.87,0,0,1,3.17-.18,2.29,2.29,0,0,1,1.48,1.23,1.39,1.39,0,0,0,.74.85,2.93,2.93,0,0,1-1.48,2.4c-.24.19-.57.26-.73.55-.38.33-.83.19-1.23.11a13.32,13.32,0,0,1-2-.57,5.24,5.24,0,0,0-3-.21,5.35,5.35,0,0,1-2.15-.06,5.66,5.66,0,0,0-3.07.45,3.1,3.1,0,0,1-2.84,0c0-.24-.17-.34-.29-.5A3.93,3.93,0,0,1,140.22,87.32Zm13.4.09a4,4,0,0,0-2.28.72c-.12.07-.27.17-.22.34a.37.37,0,0,0,.24.16,23,23,0,0,1,2.29.54,1.21,1.21,0,0,0,.88-.22,1,1,0,0,0,.48-.88c0-.4-.4-.5-.72-.59S153.84,87.44,153.62,87.41Zm-9.06,0c-.69,0-1.22.32-1.18.74s.56.66,1.22.59,1-.11,1.54-.18c.15,0,.36,0,.39-.21s-.12-.25-.24-.33A3.18,3.18,0,0,0,144.56,87.45Z"/><path class="cls-11" d="M158.09,102a2.56,2.56,0,0,1-.94,1,10.85,10.85,0,0,1-4.35,2.22,11.06,11.06,0,0,1-4.55.16,18.38,18.38,0,0,1-5.77-1.94,11.23,11.23,0,0,1-2.16-1.46l1.53-.23a21.53,21.53,0,0,1,6.46-.29,10.23,10.23,0,0,0,3.31-.1,8.82,8.82,0,0,1,1.54-.14A18.28,18.28,0,0,1,158.09,102Z"/><path class="cls-11" d="M140,101.58a20.16,20.16,0,0,1,1.7-1.51,21.15,21.15,0,0,1,3.12-2c.68-.34,1.34-.72,2-1a1.08,1.08,0,0,1,1,0,2.71,2.71,0,0,0,3.06,0,2.45,2.45,0,0,1,2.46.3,25.38,25.38,0,0,1,4.16,2.71,2.81,2.81,0,0,1,1,1.31,8.68,8.68,0,0,1-2.37-.37,13.35,13.35,0,0,0-3.94-.24,17.05,17.05,0,0,1-3.43.21,18,18,0,0,0-5.94.2A13.56,13.56,0,0,1,140,101.58Z"/><path class="cls-7" d="M140,101.58a13.56,13.56,0,0,0,2.77-.44,18,18,0,0,1,5.94-.2,17.05,17.05,0,0,0,3.43-.21,13.35,13.35,0,0,1,3.94.24,8.68,8.68,0,0,0,2.37.37c.13.06.34.09.27.28s-.39.26-.61.33a18.28,18.28,0,0,0-4.93-.74,8.82,8.82,0,0,0-1.54.14,10.23,10.23,0,0,1-3.31.1,21.53,21.53,0,0,0-6.46.29l-1.53.23-.35,0c-.11,0-.25,0-.25-.18S139.87,101.61,140,101.58Z"/><path class="cls-12" d="M149,79.25a33.81,33.81,0,0,1,.26-9.79A35.68,35.68,0,0,1,149,79.25Z"/><path class="cls-7" d="M155.82,90.52c.16-.29.49-.36.73-.55a2.93,2.93,0,0,0,1.48-2.4,2.37,2.37,0,0,0-.06-1.81,5.1,5.1,0,0,1-.32-1.22,4,4,0,0,1,.72,3.83A2.85,2.85,0,0,1,155.82,90.52Z"/><path class="cls-7" d="M140.22,87.32a3.93,3.93,0,0,0,1.08,2.4c.12.16.31.26.29.5a3.09,3.09,0,0,1-1.82-2.67A4.83,4.83,0,0,1,140.86,84a.32.32,0,0,1,.46-.11C140.71,85,139.94,86,140.22,87.32Z"/><path class="cls-12" d="M149.44,83.21c-.14.32-.26.66-.72.63s-.42-.21-.4-.5a.62.62,0,0,1,.62-.58A.44.44,0,0,1,149.44,83.21Z"/><path class="cls-7" d="M153.62,87.41c.22,0,.46,0,.67.07s.69.19.72.59a1,1,0,0,1-.48.88,1.21,1.21,0,0,1-.88.22,23,23,0,0,0-2.29-.54.37.37,0,0,1-.24-.16c-.05-.17.1-.27.22-.34A4,4,0,0,1,153.62,87.41Z"/><path class="cls-7" d="M144.56,87.45a3.18,3.18,0,0,1,1.73.61c.12.08.27.16.24.33s-.24.19-.39.21c-.51.07-1,.12-1.54.18s-1.19-.19-1.22-.59S143.87,87.44,144.56,87.45Z"/><path class="cls-8" d="M156.12,70a7.32,7.32,0,0,1,6.46-3.32C167.15,66.69,169,69,169,69a3,3,0,0,0-1.54,0c-.54.24-1.55,2.06-5.19,1.94S156.78,69.87,156.12,70Z"/><path class="cls-8" d="M129.3,68.83a7.56,7.56,0,0,1,6.16-2.32,9.35,9.35,0,0,1,6,3.6,42.54,42.54,0,0,1-6.77.38C132.24,70.29,130.18,68.93,129.3,68.83Z"/><path class="cls-13" d="M141.63,70.12A11.44,11.44,0,0,0,137.91,67a6.77,6.77,0,0,0-3.28-.75,7.4,7.4,0,0,0-1.65.29,14.77,14.77,0,0,0-4.25,2.29,1,1,0,0,1-.87,0,1.81,1.81,0,0,0,.66-.22,20.11,20.11,0,0,1,4.72-2.36,5.68,5.68,0,0,1,1.48-.2,11.07,11.07,0,0,1,3.09.72A6.63,6.63,0,0,1,141.63,70.12Z"/><path class="cls-13" d="M155.57,70.07l.17-.14C155.64,70,155.58,70.09,155.57,70.07Z"/><path class="cls-13" d="M169.19,69a1.2,1.2,0,0,1-1.05-.24,8.83,8.83,0,0,0-3.48-1.87,5.55,5.55,0,0,0-1.86-.22,15.72,15.72,0,0,0-2.65.37,4.84,4.84,0,0,0-1.84.84c-.73.54-2.08,1.68-2.56,2.09a14.57,14.57,0,0,1,3-2.84,6.45,6.45,0,0,1,2-.83h0a7.72,7.72,0,0,1,3.28,0l.45.1A10.47,10.47,0,0,1,169.19,69Z"/><path class="cls-14" d="M138,67.52a2.71,2.71,0,0,1-5.3,0,1.87,1.87,0,0,1,.29-1,7.4,7.4,0,0,1,1.65-.29,6.77,6.77,0,0,1,3.28.75A1.53,1.53,0,0,1,138,67.52Z"/><path class="cls-14" d="M165,67.89a2.54,2.54,0,0,1-5,0,2,2,0,0,1,.22-.9,15.72,15.72,0,0,1,2.65-.37,5.55,5.55,0,0,1,1.86.22A2,2,0,0,1,165,67.89Z"/><ellipse class="cls-13" cx="135.48" cy="67.17" rx="1.02" ry="0.9"/><circle class="cls-13" cx="162.41" cy="67.51" r="1.16"/><ellipse class="cls-8" cx="136.14" cy="67.89" rx="0.58" ry="0.52"/><ellipse class="cls-8" cx="163.05" cy="68.15" rx="0.58" ry="0.52"/><path class="cls-7" d="M156.92,67.51a8.62,8.62,0,0,1,6.18-2.72,9.83,9.83,0,0,1,3.4.61,6.46,6.46,0,0,1,2.84,1.91,6.27,6.27,0,0,0-1.39-1,8,8,0,0,0-1.55-.64,10.21,10.21,0,0,0-1.64-.36,7.53,7.53,0,0,0-.83-.1,7.77,7.77,0,0,0-.83,0,9.56,9.56,0,0,0-4.78,1.34A8.84,8.84,0,0,0,156.92,67.51Z"/><path class="cls-7" d="M127.86,67.17a10.7,10.7,0,0,1,3-2,11.49,11.49,0,0,1,1.74-.59,9.33,9.33,0,0,1,1.82-.22,6.85,6.85,0,0,1,3.55.87,7.21,7.21,0,0,1,2.65,2.46,7.56,7.56,0,0,0-1.3-1.23,6.87,6.87,0,0,0-1.5-.94,7.26,7.26,0,0,0-3.39-.74,10.59,10.59,0,0,0-3.45.69,13.84,13.84,0,0,0-1.62.73A11.45,11.45,0,0,0,127.86,67.17Z"/><path class="cls-4" d="M152.38,71.09a3.28,3.28,0,0,1-.35-3.92c1.27-2.35.61-3.81,2-4.76s5.61-1.15,5.78-.61-1.53,2.14-4.09,4.46S153.25,71,152.38,71.09Z"/><path class="cls-4" d="M142.2,61.5s2.86,2.1,3.25,4.25.85,5.17-.47,5.12-2.8-3.27-3.1-3.93-3.41-5.34-4.22-5.71S139.71,59.94,142.2,61.5Z"/><path class="cls-13" d="M154,62.63s-.48-2.92,1.56-3.5,9.89-3.25,13.77-1.38,5.93,4.4,6.6,8.27c0,0,.07-.6-2.8-2.93S164.84,60,161.26,61,154.61,63.42,154,62.63Z"/><path class="cls-13" d="M143.88,61.09s.13-1.46-2.8-2.13-10.91-1.6-13.22-.53-6.38,5.2-5.38,6.36c1.27-1.23,1.82-2,5.67-3.42,5-.54,10.56-.61,12.51.19A3,3,0,0,0,143.88,61.09Z"/><path class="cls-3" d="M180.23,66.84a2.84,2.84,0,0,1,3.82-1.33c2.54,1.22,2.44,4.93,2.17,5.94a36.44,36.44,0,0,0-.8,9.54c.38,3.19,3.08,8,.93,8.81s-3.26,1.42-4.8-.61S180.23,66.84,180.23,66.84Z"/><path class="cls-7" d="M183.19,84.05a44.81,44.81,0,0,1-.87-5.39c-.07-.91-.11-1.82-.15-2.73l0-.69a2.2,2.2,0,0,1,.07-.71,5.61,5.61,0,0,0,.23-1.31c0-.45.06-.91.12-1.37,0-.22.06-.45.11-.69a3.55,3.55,0,0,1,.11-.36.72.72,0,0,1,.14-.19l.13-.13a4.15,4.15,0,0,1,.58-.43,1.52,1.52,0,0,1,.75-.26.62.62,0,0,1,.47.22,1,1,0,0,1,.16.42,3.6,3.6,0,0,1,0,.74,7,7,0,0,1-.69,2.7,1.48,1.48,0,0,1-.21.3,1.66,1.66,0,0,1-.13.14l-.11.11a2.28,2.28,0,0,0-.35.54,7.67,7.67,0,0,0-.46,1.27h0a5.73,5.73,0,0,1,.3-1.35,2.59,2.59,0,0,1,.34-.63c.08-.11.15-.18.21-.26a1.75,1.75,0,0,0,.16-.27,4.76,4.76,0,0,0,.37-1.25,11.78,11.78,0,0,0,.16-1.33,4.5,4.5,0,0,0,0-.63.47.47,0,0,0-.07-.21s-.06,0-.12-.06a1.18,1.18,0,0,0-.53.19,4.5,4.5,0,0,0-.53.36,1.14,1.14,0,0,0-.11.11s0,0-.07.08-.07.18-.1.28-.1.43-.13.65l-.23,1.35a7.34,7.34,0,0,1-.32,1.35,1.87,1.87,0,0,0-.08.64c0,.22,0,.45,0,.68.07.9.23,1.8.36,2.7.25,1.8.44,3.6.56,5.42Z"/><path class="cls-3" d="M117.37,66.84a2.84,2.84,0,0,0-3.82-1.33c-2.55,1.22-2.44,4.93-2.18,5.94a36.44,36.44,0,0,1,.8,9.54c-.37,3.19-3.07,8-.93,8.81s3.26,1.42,4.8-.61S117.37,66.84,117.37,66.84Z"/><path class="cls-7" d="M114.83,83.2a44.81,44.81,0,0,0,.87-5.39c.07-.91.11-1.83.15-2.74,0-.22,0-.45,0-.68a2.2,2.2,0,0,0-.07-.71,5.61,5.61,0,0,1-.23-1.31c0-.46-.06-.91-.12-1.37,0-.22-.06-.45-.11-.69a2.92,2.92,0,0,0-.11-.36.72.72,0,0,0-.14-.19,1.59,1.59,0,0,0-.13-.13,4.15,4.15,0,0,0-.58-.43,1.52,1.52,0,0,0-.74-.26.59.59,0,0,0-.47.22.87.87,0,0,0-.17.42,3.49,3.49,0,0,0,0,.73,7.05,7.05,0,0,0,.69,2.71,1.48,1.48,0,0,0,.21.3,1.66,1.66,0,0,0,.13.14l.11.11a2.28,2.28,0,0,1,.35.54,7.67,7.67,0,0,1,.46,1.27h0a5.73,5.73,0,0,0-.3-1.35,2.71,2.71,0,0,0-.33-.63l-.22-.26a2.4,2.4,0,0,1-.16-.27,4.76,4.76,0,0,1-.37-1.25,11.78,11.78,0,0,1-.16-1.33,4.52,4.52,0,0,1,0-.63.47.47,0,0,1,.07-.21s.06,0,.12-.06a1.24,1.24,0,0,1,.53.18,6.3,6.3,0,0,1,.53.37l.12.11s0,0,.06.08a1.83,1.83,0,0,1,.1.28c.05.21.1.43.14.65l.22,1.35a8.26,8.26,0,0,0,.32,1.35,1.84,1.84,0,0,1,.08.64c0,.22,0,.45,0,.68-.07.9-.23,1.8-.36,2.7-.25,1.8-.44,3.6-.56,5.42Z"/><path class="cls-15" d="M117.8,65.9c-4-6.79,16.65-6,20.27-4.9,2.81.45,4.77,2.31,7.09,3.54,9.74.32,6.73.72,15-3.05,5.89-1.74,12-.56,17.73,1.11a9.59,9.59,0,0,0,1.75.74c2,.39,2.21,2.33.6,3.27-.22.1-.52.17-.52.49-3.2,3.14-.94,9.51-5.35,12.38-9.06,7.42-24.78-.88-21.88-12.31-1.11-2.17-7.48-1.73-6.14,1.54,2.28,10.58-14.59,16.49-21.53,10.43C119.24,76.33,121.84,65.85,117.8,65.9Zm51.42-3.25c-10.6-2.41-21,5.95-11.25,15.38C172.45,89.43,185,65.6,169.22,62.65Zm-29,.69c-4.79-2.22-13.16-3.15-16.61,2-2.64,4.44-.45,12.41,4.94,14.24C138.3,84.17,151.89,69.3,140.18,63.34Z"/><path class="cls-16" d="M165.43,39a30.89,30.89,0,0,1-6.42.65c-4.6.15-8.76.37-10.8,0s-1.46-2.33-9.92-1.53S126.1,39,124,43.32s-3.07,4.35-3.14,7.83,1.17,4.58-.8,7.13-3.36,10-3.21,12.92a24.4,24.4,0,0,1,0,4s-.64-5-2.32-7.83-2.59-3.19-2.35-6.69S110.08,52,115,42.52s5.16-13.2,14.94-16.78S146.6,18.81,154.41,22s8.32,5.32,9.16,6.71,1.79-.44,5.07-.58,9.3,1.67,13.08,7.29,3.77,10.72,4,14,.37,10.25-.65,12.22a35,35,0,0,0-1.9,5.61c-.51,1.47-1.13,2.44-1,3.83s-1.39-.44-1.39-3.62-1.09-4.21-1.17-6.76-3.79-4.28-3.28-7.13-3.5-9.36-4.38-11S165.43,39,165.43,39Z"/><path class="cls-17" d="M264.64,218.36c0,5.14-.08,10.27-.33,15.4-.13,2.56-.28,5.12-.52,7.67s-.53,5.1-1,7.59a23,23,0,0,1-1,3.65,5.69,5.69,0,0,1-.81,1.55,1.15,1.15,0,0,1-.52.42,6.14,6.14,0,0,1-.84.2c-1.23.2-2.51.31-3.78.41s-2.55.2-3.83.27c-5.12.3-10.25.5-15.39.69-10.26.36-20.54.59-30.8.79s-20.55.32-30.82.37-20.55.09-30.82,0c-5.13-.05-10.27-.12-15.4-.27-2.56-.07-5.13-.17-7.68-.29s-5.12-.28-7.63-.57c-.63-.07-1.25-.16-1.85-.27-.3,0-.61-.11-.89-.18l-.3-.08C141.3,258.08,245.65,253,245.65,253s7.34-.77,12.75-10.82c4.78-8.88-1.16-68.19-2.6-81.84.48,0,1,.05,1.45.09.64,0,1.27.1,1.89.17l.46.07a2.66,2.66,0,0,1,.44.08l.21.05.11,0s.08.08.14.19a8.26,8.26,0,0,1,.55,1.72c.14.61.27,1.24.38,1.87.44,2.51.75,5.06,1,7.61.53,5.1.9,10.22,1.23,15.35C264.34,197.81,264.63,208.09,264.64,218.36Z"/><path class="cls-18" d="M363.38,54.83l-8,19.08H353.4l8-19.08Z"/><path class="cls-18" d="M376.58,54.83l-8,19.08h-2l8-19.08Z"/><path class="cls-18" d="M404.71,71.39h-2.27l-1.07-3.34H395l-1.08,3.34h-2.17l5.09-15.31h2.86Zm-3.93-5.2L398.19,58l-2.59,8.19Z"/><path class="cls-18" d="M410.71,56.51h-3.48V54.83h5.55V69.69h3.5v1.7h-9.43v-1.7h3.86Z"/><path class="cls-18" d="M428.37,61.29a3,3,0,0,1,.51,1,3.68,3.68,0,0,1,.19,1.17,4.12,4.12,0,0,1-.34,1.67,3.71,3.71,0,0,1-.94,1.3,4.37,4.37,0,0,1-1.46.84,5.6,5.6,0,0,1-1.87.3,6.07,6.07,0,0,1-1.38-.16,3.89,3.89,0,0,1-1-.39,4.71,4.71,0,0,0-.38.62,1.38,1.38,0,0,0-.15.65A.85.85,0,0,0,422,69a2.07,2.07,0,0,0,1.13.32l3.09.11a6.89,6.89,0,0,1,1.63.23,3.9,3.9,0,0,1,1.27.57,2.67,2.67,0,0,1,.84.93,2.7,2.7,0,0,1,.29,1.27,3.32,3.32,0,0,1-.34,1.49,3.37,3.37,0,0,1-1,1.24A5.79,5.79,0,0,1,427,76a9.4,9.4,0,0,1-2.59.32,11.29,11.29,0,0,1-2.44-.23,5.56,5.56,0,0,1-1.64-.64,2.61,2.61,0,0,1-.94-1,2.64,2.64,0,0,1-.29-1.22,2.76,2.76,0,0,1,.4-1.5,4.24,4.24,0,0,1,1.23-1.24,1.84,1.84,0,0,1-.53-.36,2,2,0,0,1-.57-1,2.15,2.15,0,0,1-.08-.55,2.81,2.81,0,0,1,.36-1.4,7,7,0,0,1,.85-1.19,5.49,5.49,0,0,1-.39-.53,3.29,3.29,0,0,1-.29-.56,2.64,2.64,0,0,1-.19-.64,4.55,4.55,0,0,1-.07-.79,4.12,4.12,0,0,1,.34-1.67,3.59,3.59,0,0,1,.94-1.3,4.2,4.2,0,0,1,1.45-.83,5.62,5.62,0,0,1,1.88-.3,5.49,5.49,0,0,1,.83.06,4.2,4.2,0,0,1,.71.15h4.26v1.66Zm-7.07,11.8a1.27,1.27,0,0,0,.86,1.22,7.72,7.72,0,0,0,4,.2,3.44,3.44,0,0,0,1.07-.46,1.71,1.71,0,0,0,.58-.66,1.68,1.68,0,0,0,.17-.75,1.14,1.14,0,0,0-.58-1.06,4,4,0,0,0-1.79-.4l-3.08-.1a4.47,4.47,0,0,0-.63.5,2.5,2.5,0,0,0-.4.5,2.27,2.27,0,0,0-.2.5A2.94,2.94,0,0,0,421.3,73.09Zm.62-9.62a2.82,2.82,0,0,0,.18,1,2.38,2.38,0,0,0,.53.8,2.48,2.48,0,0,0,.8.51,2.82,2.82,0,0,0,1,.18,2.77,2.77,0,0,0,1.08-.2,2.35,2.35,0,0,0,.8-.56,2.23,2.23,0,0,0,.49-.81,2.54,2.54,0,0,0,.17-1,2.86,2.86,0,0,0-.18-1,2.3,2.3,0,0,0-1.33-1.31,2.86,2.86,0,0,0-1-.18,2.6,2.6,0,0,0-1.08.21,2.35,2.35,0,0,0-.8.56,2.27,2.27,0,0,0-.49.8A2.58,2.58,0,0,0,421.92,63.47Z"/><path class="cls-18" d="M443.34,65.42a7.73,7.73,0,0,1-.39,2.51,5.79,5.79,0,0,1-1.11,2,5.11,5.11,0,0,1-1.77,1.26,6,6,0,0,1-2.37.45,6.25,6.25,0,0,1-2.27-.39,4.42,4.42,0,0,1-1.69-1.15,5.13,5.13,0,0,1-1.07-1.89,8.18,8.18,0,0,1-.37-2.59,7.62,7.62,0,0,1,.39-2.5,5.67,5.67,0,0,1,1.11-1.95,4.93,4.93,0,0,1,1.77-1.26,5.89,5.89,0,0,1,2.37-.45,6.15,6.15,0,0,1,2.26.39A4.38,4.38,0,0,1,441.9,61,5,5,0,0,1,443,62.84,8.16,8.16,0,0,1,443.34,65.42Zm-2.09.09a6.7,6.7,0,0,0-.24-1.9,3.86,3.86,0,0,0-.68-1.36,2.74,2.74,0,0,0-1.09-.82,3.43,3.43,0,0,0-1.42-.28,3,3,0,0,0-2.63,1.31,4.17,4.17,0,0,0-.61,1.39,6.92,6.92,0,0,0-.19,1.66,6.83,6.83,0,0,0,.24,1.91,3.83,3.83,0,0,0,.68,1.37,3,3,0,0,0,1.08.82,3.61,3.61,0,0,0,1.43.27,3.16,3.16,0,0,0,1.56-.36,3,3,0,0,0,1.07-1,4.08,4.08,0,0,0,.61-1.39A7,7,0,0,0,441.25,65.51Z"/><path class="cls-18" d="M446.77,59.63h1.87l.05,2.17A7.58,7.58,0,0,1,450.75,60a4.14,4.14,0,0,1,2.05-.56,3.34,3.34,0,0,1,2.77,1.18,5.27,5.27,0,0,1,.87,3.52h-2.06a3.93,3.93,0,0,0-.45-2.25,1.65,1.65,0,0,0-1.43-.7,2.37,2.37,0,0,0-.82.15,3.5,3.5,0,0,0-.86.47,7.34,7.34,0,0,0-.93.83,15.73,15.73,0,0,0-1.06,1.21v7.56h-2.06Z"/><path class="cls-18" d="M463.5,61.32H460V59.63h5.55V69.69h3.5v1.7h-9.43v-1.7h3.87Zm.71-6.63a1.61,1.61,0,0,1,.63.13,1.39,1.39,0,0,1,.51.34,1.57,1.57,0,0,1,.34.51,1.57,1.57,0,0,1,0,1.25,1.54,1.54,0,0,1-.85.86,1.59,1.59,0,0,1-1.26,0,1.54,1.54,0,0,1-.85-.86,1.57,1.57,0,0,1,0-1.25,1.57,1.57,0,0,1,.34-.51,1.39,1.39,0,0,1,.51-.34A1.61,1.61,0,0,1,464.21,54.69Z"/><path class="cls-18" d="M482.16,71.23a9.27,9.27,0,0,1-1.43.25,14.76,14.76,0,0,1-1.5.08,4.79,4.79,0,0,1-3.3-1,4,4,0,0,1-1.09-3.08V61.34h-3.29V59.63h3.29V56.39l2-.52v3.76h5.28v1.71h-5.28v6a2.46,2.46,0,0,0,.67,1.89,2.81,2.81,0,0,0,2,.62,9.25,9.25,0,0,0,1.23-.08,11,11,0,0,0,1.39-.28Z"/><path class="cls-18" d="M495.33,71.39h-2V63.88a3.36,3.36,0,0,0-.51-2,1.73,1.73,0,0,0-1.46-.68,2.39,2.39,0,0,0-.77.12,2.48,2.48,0,0,0-.74.38,6.62,6.62,0,0,0-.85.75q-.45.46-1.05,1.17v7.8h-2V54.83h2v4.8l-.07,1.85a8,8,0,0,1,.94-1,5.74,5.74,0,0,1,.93-.64,3.69,3.69,0,0,1,.94-.35,4.65,4.65,0,0,1,1-.1,3.43,3.43,0,0,1,2.71,1.07,4.7,4.7,0,0,1,1,3.23Z"/><path class="cls-18" d="M507.46,71.39V62.94a7.6,7.6,0,0,0,0-.9,1.71,1.71,0,0,0-.13-.55.52.52,0,0,0-.22-.29.58.58,0,0,0-.33-.08.72.72,0,0,0-.44.14,1.86,1.86,0,0,0-.42.45,6.78,6.78,0,0,0-.51.84l-.65,1.28v7.56h-1.86V63.17c0-.43,0-.78,0-1.05a2.55,2.55,0,0,0-.13-.62.57.57,0,0,0-.23-.3.61.61,0,0,0-.34-.08.83.83,0,0,0-.4.11,1.71,1.71,0,0,0-.41.43,5.1,5.1,0,0,0-.51.83c-.19.35-.41.8-.67,1.34v7.56h-1.88V59.63h1.56l.1,2.24a9.86,9.86,0,0,1,.59-1.14,4.09,4.09,0,0,1,.59-.76,2,2,0,0,1,.65-.42,2.11,2.11,0,0,1,.77-.13A1.71,1.71,0,0,1,504,60a3,3,0,0,1,.49,1.92c.19-.41.37-.77.55-1.08a3.67,3.67,0,0,1,.58-.8,2.14,2.14,0,0,1,.69-.49,2,2,0,0,1,.86-.17c1.48,0,2.22,1.13,2.22,3.41v8.56Z"/><path class="cls-18" d="M535.71,65.42a7.73,7.73,0,0,1-.39,2.51,5.79,5.79,0,0,1-1.11,2,5.11,5.11,0,0,1-1.77,1.26,6,6,0,0,1-2.37.45,6.25,6.25,0,0,1-2.27-.39,4.46,4.46,0,0,1-1.7-1.15A5.11,5.11,0,0,1,525,68.17a8.18,8.18,0,0,1-.37-2.59,7.9,7.9,0,0,1,.38-2.5,5.69,5.69,0,0,1,1.12-1.95,4.93,4.93,0,0,1,1.77-1.26,5.88,5.88,0,0,1,2.36-.45,6.21,6.21,0,0,1,2.27.39,4.38,4.38,0,0,1,1.7,1.15,5,5,0,0,1,1.07,1.88A8.45,8.45,0,0,1,535.71,65.42Zm-2.09.09a6.7,6.7,0,0,0-.24-1.9,3.71,3.71,0,0,0-.69-1.36,2.64,2.64,0,0,0-1.08-.82,3.46,3.46,0,0,0-1.42-.28,3.22,3.22,0,0,0-1.57.36,3.13,3.13,0,0,0-1.06,1,4.17,4.17,0,0,0-.61,1.39,6.92,6.92,0,0,0-.2,1.66,6.83,6.83,0,0,0,.24,1.91,3.84,3.84,0,0,0,.69,1.37,2.9,2.9,0,0,0,1.08.82,3.61,3.61,0,0,0,1.43.27,3.16,3.16,0,0,0,1.56-.36,3.05,3.05,0,0,0,1.07-1,4.29,4.29,0,0,0,.61-1.39A7,7,0,0,0,533.62,65.51Z"/><path class="cls-18" d="M549.1,56.73a14.12,14.12,0,0,0-2.77-.34c-1.83,0-2.75,1-2.75,2.89v2.06h5.16V63h-5.16v8.35h-2.07V63h-3.79v-1.7h3.79v-2q0-4.7,4.9-4.7a14.29,14.29,0,0,1,2.69.29Z"/><path class="cls-18" d="M574.86,67.25a3.93,3.93,0,0,1-.45,1.91,3.84,3.84,0,0,1-1.24,1.36,5.59,5.59,0,0,1-1.92.81,10.41,10.41,0,0,1-2.46.27c-.41,0-.81,0-1.21,0s-.79-.07-1.16-.12-.73-.1-1-.16-.63-.13-.89-.2v-2a11,11,0,0,0,2,.52,15.47,15.47,0,0,0,2.49.18,8.53,8.53,0,0,0,1.72-.15,3.55,3.55,0,0,0,1.16-.47,1.81,1.81,0,0,0,.65-.76,2.35,2.35,0,0,0,.21-1,1.67,1.67,0,0,0-.35-1.06,3.36,3.36,0,0,0-.91-.78,9,9,0,0,0-1.28-.64l-1.47-.59q-.75-.3-1.47-.66a6.16,6.16,0,0,1-1.28-.84,3.89,3.89,0,0,1-.91-1.15,3.27,3.27,0,0,1-.35-1.56,3.85,3.85,0,0,1,.33-1.54,3.78,3.78,0,0,1,1-1.36,5.26,5.26,0,0,1,1.78-1,8.2,8.2,0,0,1,2.58-.36l.84,0c.3,0,.6.06.91.1s.62.09.92.15.58.11.83.17V58.2a14.48,14.48,0,0,0-1.8-.39,11.78,11.78,0,0,0-1.75-.14,4.58,4.58,0,0,0-2.63.6,1.85,1.85,0,0,0-.85,1.6,1.7,1.7,0,0,0,.35,1.07,3.42,3.42,0,0,0,.91.8,9,9,0,0,0,1.28.64l1.47.59c.5.2,1,.42,1.47.67a5.85,5.85,0,0,1,1.28.86,3.93,3.93,0,0,1,.91,1.16A3.45,3.45,0,0,1,574.86,67.25Z"/><path class="cls-18" d="M587.7,71.39h-1.83l-.07-1.89a9.58,9.58,0,0,1-1,1,4.82,4.82,0,0,1-.94.65,3.56,3.56,0,0,1-.94.34,4.74,4.74,0,0,1-1,.1,3.44,3.44,0,0,1-2.74-1.06,4.8,4.8,0,0,1-.92-3.22V59.63h2v7.52c0,1.81.68,2.71,2,2.71a2.65,2.65,0,0,0,.74-.11,3.39,3.39,0,0,0,.75-.39,5.85,5.85,0,0,0,.84-.74c.3-.32.64-.71,1-1.19v-7.8h2Z"/><path class="cls-18" d="M600.58,71a9.39,9.39,0,0,1-1.63.45,9.85,9.85,0,0,1-1.73.15,5.85,5.85,0,0,1-4.3-1.51,6,6,0,0,1-1.5-4.42,7,7,0,0,1,.43-2.53,5.71,5.71,0,0,1,1.22-2,5.49,5.49,0,0,1,1.87-1.25,6.46,6.46,0,0,1,2.41-.44,11.43,11.43,0,0,1,1.71.13,7.58,7.58,0,0,1,1.52.42v2a6.22,6.22,0,0,0-1.55-.58,7.36,7.36,0,0,0-1.64-.18,3.73,3.73,0,0,0-1.48.3,3.57,3.57,0,0,0-1.22.86,4,4,0,0,0-.84,1.37,5.24,5.24,0,0,0-.3,1.83,4.41,4.41,0,0,0,1,3.19,3.82,3.82,0,0,0,2.87,1.06,6.65,6.65,0,0,0,1.62-.19,6.48,6.48,0,0,0,1.5-.56Z"/><path class="cls-18" d="M613.78,71a9.26,9.26,0,0,1-1.64.45,9.77,9.77,0,0,1-1.73.15,5.81,5.81,0,0,1-4.29-1.51,6,6,0,0,1-1.51-4.42,7,7,0,0,1,.44-2.53,5.35,5.35,0,0,1,3.09-3.2,6.45,6.45,0,0,1,2.4-.44,11.43,11.43,0,0,1,1.71.13,7.86,7.86,0,0,1,1.53.42v2a6.28,6.28,0,0,0-1.56-.58,7.27,7.27,0,0,0-1.63-.18,3.69,3.69,0,0,0-1.48.3,3.51,3.51,0,0,0-1.23.86,4,4,0,0,0-.83,1.37,5.24,5.24,0,0,0-.3,1.83,4.4,4.4,0,0,0,1,3.19,3.83,3.83,0,0,0,2.88,1.06,6.63,6.63,0,0,0,1.61-.19,6.56,6.56,0,0,0,1.51-.56Z"/><path class="cls-18" d="M627.77,64.89c0,.29,0,.53,0,.73s0,.38,0,.55h-8.26a3.68,3.68,0,0,0,1,2.77,4,4,0,0,0,2.9,1c.35,0,.69,0,1,0s.67-.06,1-.11.63-.1.92-.16a8.28,8.28,0,0,0,.82-.19v1.68a16.14,16.14,0,0,1-1.89.38,15.22,15.22,0,0,1-2.17.14,7.24,7.24,0,0,1-2.6-.41A4.44,4.44,0,0,1,618.69,70a4.81,4.81,0,0,1-1-1.91,9.08,9.08,0,0,1-.33-2.56,7.91,7.91,0,0,1,.35-2.35,6,6,0,0,1,1.05-1.94,4.93,4.93,0,0,1,3.94-1.82,5.89,5.89,0,0,1,2.18.38,4.44,4.44,0,0,1,1.6,1.1,4.69,4.69,0,0,1,1,1.72A7,7,0,0,1,627.77,64.89Zm-2.12-.29a4.69,4.69,0,0,0-.15-1.44,3.14,3.14,0,0,0-.58-1.12,2.86,2.86,0,0,0-1-.73,3.24,3.24,0,0,0-1.36-.26,2.72,2.72,0,0,0-2.17,1,3.76,3.76,0,0,0-.65,1.13,5.25,5.25,0,0,0-.3,1.44Z"/><path class="cls-18" d="M640.34,68.18a2.83,2.83,0,0,1-.21,1.12,3,3,0,0,1-.57.87,3.68,3.68,0,0,1-.85.65,5.15,5.15,0,0,1-1,.44,6.07,6.07,0,0,1-1.12.26,7.24,7.24,0,0,1-1.13.08,21.23,21.23,0,0,1-2.19-.1,14.22,14.22,0,0,1-2-.34V69.28a15.74,15.74,0,0,0,2.05.45,14,14,0,0,0,2,.15,4.5,4.5,0,0,0,2.17-.4,1.23,1.23,0,0,0,.7-1.13,1.32,1.32,0,0,0-.11-.57,1.25,1.25,0,0,0-.4-.48,4.32,4.32,0,0,0-.91-.48c-.41-.16-1-.35-1.68-.56a12.57,12.57,0,0,1-1.47-.53,5.13,5.13,0,0,1-1.17-.71,3.08,3.08,0,0,1-.77-1,2.8,2.8,0,0,1-.28-1.3,2.84,2.84,0,0,1,.23-1.08,2.91,2.91,0,0,1,.77-1.09,4.31,4.31,0,0,1,1.49-.84,7.19,7.19,0,0,1,2.35-.33c.46,0,1,0,1.53.07a14.79,14.79,0,0,1,1.76.27v1.81a17.36,17.36,0,0,0-1.82-.34,11,11,0,0,0-1.5-.11,6.63,6.63,0,0,0-1.28.11,2.54,2.54,0,0,0-.84.33,1.2,1.2,0,0,0-.47.48,1.31,1.31,0,0,0-.14.59,1.2,1.2,0,0,0,.13.57,1.37,1.37,0,0,0,.45.5,4.94,4.94,0,0,0,.93.48c.4.16.92.33,1.56.52a13.75,13.75,0,0,1,1.76.64,4.55,4.55,0,0,1,1.16.74,2.47,2.47,0,0,1,.64.93A3.3,3.3,0,0,1,640.34,68.18Z"/><path class="cls-18" d="M653.54,68.18a2.73,2.73,0,0,1-.79,2,3.62,3.62,0,0,1-.84.65,5,5,0,0,1-1,.44,5.89,5.89,0,0,1-1.12.26,7.12,7.12,0,0,1-1.12.08,21.29,21.29,0,0,1-2.2-.1,14.08,14.08,0,0,1-2-.34V69.28a15.39,15.39,0,0,0,2,.45,14,14,0,0,0,2,.15,4.52,4.52,0,0,0,2.17-.4,1.25,1.25,0,0,0,.7-1.13,1.48,1.48,0,0,0-.11-.57,1.29,1.29,0,0,0-.41-.48,3.86,3.86,0,0,0-.91-.48c-.41-.16-1-.35-1.68-.56a12.57,12.57,0,0,1-1.47-.53,4.85,4.85,0,0,1-1.16-.71,3.11,3.11,0,0,1-.78-1,2.93,2.93,0,0,1-.28-1.3,3,3,0,0,1,.23-1.08,2.84,2.84,0,0,1,.78-1.09,4.22,4.22,0,0,1,1.49-.84,7.08,7.08,0,0,1,2.34-.33c.46,0,1,0,1.54.07a14.33,14.33,0,0,1,1.75.27v1.81a16.9,16.9,0,0,0-1.82-.34,10.77,10.77,0,0,0-1.49-.11,6.48,6.48,0,0,0-1.28.11,2.69,2.69,0,0,0-.85.33,1.17,1.17,0,0,0-.46.48,1.2,1.2,0,0,0-.14.59,1.32,1.32,0,0,0,.12.57,1.41,1.41,0,0,0,.46.5,4.38,4.38,0,0,0,.93.48c.4.16.92.33,1.56.52a14.33,14.33,0,0,1,1.76.64,4.73,4.73,0,0,1,1.16.74,2.44,2.44,0,0,1,.63.93A3.3,3.3,0,0,1,653.54,68.18Z"/><path class="cls-19" d="M357.93,90.12h-3.48V88.43H360V98.49h3.5v1.7h-9.43v-1.7h3.86Zm.72-6.63a1.69,1.69,0,0,1,.63.13,1.39,1.39,0,0,1,.51.34,1.75,1.75,0,0,1,.34.51,1.69,1.69,0,0,1,0,1.25,1.67,1.67,0,0,1-.34.52,1.52,1.52,0,0,1-.51.34,1.62,1.62,0,0,1-1.27,0,1.75,1.75,0,0,1-.51-.34,1.65,1.65,0,0,1-.33-.52,1.57,1.57,0,0,1,0-1.25,1.72,1.72,0,0,1,.33-.51,1.57,1.57,0,0,1,.51-.34A1.7,1.7,0,0,1,358.65,83.49Z"/><path class="cls-19" d="M377.56,85.53a14.11,14.11,0,0,0-2.76-.34c-1.84,0-2.76,1-2.76,2.89v2.06h5.16v1.7H372v8.35H370V91.84h-3.79v-1.7H370v-2q0-4.69,4.9-4.7a14.29,14.29,0,0,1,2.69.29Z"/><path class="cls-8" d="M400.55,105.12q-5.4-5-5.4-11.07a14.31,14.31,0,0,1,.29-2.83,13.72,13.72,0,0,1,.92-2.83,15.65,15.65,0,0,1,1.69-2.83,20.44,20.44,0,0,1,2.55-2.82L401.78,84a13.72,13.72,0,0,0-4.54,10,12.37,12.37,0,0,0,1.15,5.23,16,16,0,0,0,3.39,4.73Z"/><path class="cls-20" d="M419.9,88.43h1.82l.08,1.9a8.11,8.11,0,0,1,1-1,5.69,5.69,0,0,1,.94-.65,3.44,3.44,0,0,1,.94-.34,4.65,4.65,0,0,1,1-.1,3.43,3.43,0,0,1,2.75,1.07,4.81,4.81,0,0,1,.93,3.23v7.67h-2V92.68a3.26,3.26,0,0,0-.52-2,1.82,1.82,0,0,0-1.53-.67,2.24,2.24,0,0,0-.73.12,2.65,2.65,0,0,0-.75.38,6,6,0,0,0-.84.75c-.3.31-.63.7-1,1.17v7.8h-2Z"/><path class="cls-20" d="M443.34,94.22a7.73,7.73,0,0,1-.39,2.51,5.79,5.79,0,0,1-1.11,2,5.11,5.11,0,0,1-1.77,1.26,6,6,0,0,1-2.37.45,6.25,6.25,0,0,1-2.27-.39,4.42,4.42,0,0,1-1.69-1.15A5.13,5.13,0,0,1,432.67,97a8.18,8.18,0,0,1-.37-2.59,7.62,7.62,0,0,1,.39-2.5,5.58,5.58,0,0,1,1.11-1.95,4.93,4.93,0,0,1,1.77-1.26,5.89,5.89,0,0,1,2.37-.45,6.15,6.15,0,0,1,2.26.39,4.38,4.38,0,0,1,1.7,1.15A5,5,0,0,1,443,91.64,8.16,8.16,0,0,1,443.34,94.22Zm-2.09.09a6.7,6.7,0,0,0-.24-1.9,3.86,3.86,0,0,0-.68-1.36,2.74,2.74,0,0,0-1.09-.82,3.43,3.43,0,0,0-1.42-.28,3,3,0,0,0-2.63,1.31,4.08,4.08,0,0,0-.61,1.39,6.92,6.92,0,0,0-.19,1.66,6.83,6.83,0,0,0,.24,1.91,3.83,3.83,0,0,0,.68,1.37,3,3,0,0,0,1.08.82,3.61,3.61,0,0,0,1.43.27,3.16,3.16,0,0,0,1.56-.36,3,3,0,0,0,1.07-.95,4.08,4.08,0,0,0,.61-1.39A7,7,0,0,0,441.25,94.31Z"/><path class="cls-20" d="M456.1,96a4.06,4.06,0,0,1-.44,1.92,4,4,0,0,1-1.25,1.36,5.62,5.62,0,0,1-1.91.81,10.56,10.56,0,0,1-2.47.27c-.41,0-.81,0-1.21,0s-.79-.07-1.16-.12l-1.05-.16c-.33-.07-.63-.13-.89-.2v-2a11,11,0,0,0,2,.52,15.47,15.47,0,0,0,2.49.18,8.46,8.46,0,0,0,1.72-.15,3.55,3.55,0,0,0,1.16-.47,1.91,1.91,0,0,0,.66-.76,2.54,2.54,0,0,0,.2-1,1.66,1.66,0,0,0-.34-1.06,3.7,3.7,0,0,0-.91-.78,9.69,9.69,0,0,0-1.29-.64l-1.47-.59q-.75-.3-1.47-.66a6.16,6.16,0,0,1-1.28-.84,3.89,3.89,0,0,1-.91-1.15,3.27,3.27,0,0,1-.34-1.56,3.83,3.83,0,0,1,.32-1.54,3.78,3.78,0,0,1,1-1.36A5.36,5.36,0,0,1,449,85a8.2,8.2,0,0,1,2.58-.36l.84,0c.3,0,.61.06.91.1s.62.09.92.15.58.11.84.17V87a15,15,0,0,0-1.81-.39,11.75,11.75,0,0,0-1.74-.14,4.6,4.6,0,0,0-2.64.6,1.88,1.88,0,0,0-.85,1.6,1.7,1.7,0,0,0,.35,1.07,3.42,3.42,0,0,0,.91.8,9,9,0,0,0,1.28.64l1.47.59c.5.2,1,.42,1.47.67a5.8,5.8,0,0,1,1.29.86,4.07,4.07,0,0,1,.9,1.16A3.32,3.32,0,0,1,456.1,96Z"/><path class="cls-20" d="M468.94,100.19h-1.82l-.07-1.9a9.77,9.77,0,0,1-1,1,5.3,5.3,0,0,1-.94.65,3.56,3.56,0,0,1-.94.34,4.65,4.65,0,0,1-1,.1,3.44,3.44,0,0,1-2.75-1.06,4.85,4.85,0,0,1-.92-3.22V88.43h2V96c0,1.81.68,2.71,2,2.71a2.58,2.58,0,0,0,.73-.11,3,3,0,0,0,.75-.39,5.85,5.85,0,0,0,.84-.74c.3-.32.64-.71,1-1.19v-7.8h2Z"/><path class="cls-20" d="M481.82,99.76a9.15,9.15,0,0,1-1.63.45,9.85,9.85,0,0,1-1.73.15,5.81,5.81,0,0,1-4.29-1.51,6,6,0,0,1-1.51-4.42,7,7,0,0,1,.43-2.53,5.71,5.71,0,0,1,1.22-2,5.43,5.43,0,0,1,1.88-1.25,6.37,6.37,0,0,1,2.4-.44,11.43,11.43,0,0,1,1.71.13,7.58,7.58,0,0,1,1.52.42v2a6.07,6.07,0,0,0-1.55-.58,7.34,7.34,0,0,0-1.63-.18,3.74,3.74,0,0,0-1.49.3,3.57,3.57,0,0,0-1.22.86,4,4,0,0,0-.83,1.37,5,5,0,0,0-.31,1.83,4.41,4.41,0,0,0,1,3.19,3.83,3.83,0,0,0,2.88,1.06,6.63,6.63,0,0,0,1.61-.19,6.32,6.32,0,0,0,1.5-.56Z"/><path class="cls-20" d="M495,99.76a9.26,9.26,0,0,1-1.64.45,9.66,9.66,0,0,1-1.72.15,5.83,5.83,0,0,1-4.3-1.51,6,6,0,0,1-1.51-4.42,7,7,0,0,1,.44-2.53,5.57,5.57,0,0,1,1.22-2,5.49,5.49,0,0,1,1.87-1.25,6.45,6.45,0,0,1,2.4-.44,11.67,11.67,0,0,1,1.72.13,7.76,7.76,0,0,1,1.52.42v2a6.37,6.37,0,0,0-1.55-.58,7.43,7.43,0,0,0-1.64-.18,3.69,3.69,0,0,0-1.48.3,3.61,3.61,0,0,0-1.23.86,4.15,4.15,0,0,0-.83,1.37,5.24,5.24,0,0,0-.3,1.83,4.4,4.4,0,0,0,1,3.19,3.84,3.84,0,0,0,2.88,1.06,6.81,6.81,0,0,0,3.12-.75Z"/><path class="cls-20" d="M509,93.69c0,.29,0,.53,0,.73s0,.37,0,.55H500.7a3.68,3.68,0,0,0,1,2.77,4.06,4.06,0,0,0,2.91,1c.34,0,.68,0,1,0s.67-.06,1-.11.63-.1.92-.16a7.67,7.67,0,0,0,.82-.19v1.68a16,16,0,0,1-1.88.38,15.46,15.46,0,0,1-2.18.14,7.28,7.28,0,0,1-2.6-.41,4.51,4.51,0,0,1-1.79-1.19,4.94,4.94,0,0,1-1-1.91,9.08,9.08,0,0,1-.33-2.56,7.6,7.6,0,0,1,.36-2.35A5.94,5.94,0,0,1,500,90a4.93,4.93,0,0,1,3.94-1.82,5.89,5.89,0,0,1,2.18.38,4.36,4.36,0,0,1,1.6,1.1,4.71,4.71,0,0,1,1,1.72A7.32,7.32,0,0,1,509,93.69Zm-2.12-.29a4.69,4.69,0,0,0-.15-1.44,3.14,3.14,0,0,0-.58-1.12,2.77,2.77,0,0,0-1-.73,3.24,3.24,0,0,0-1.36-.26,2.86,2.86,0,0,0-1.22.25,3,3,0,0,0-1,.73A3.74,3.74,0,0,0,501,92a4.9,4.9,0,0,0-.31,1.44Z"/><path class="cls-20" d="M521.58,97a2.83,2.83,0,0,1-.21,1.12,3.12,3.12,0,0,1-.57.87,3.62,3.62,0,0,1-.84.65,5.24,5.24,0,0,1-1,.44,6.07,6.07,0,0,1-1.12.26,7.2,7.2,0,0,1-1.12.08,21.29,21.29,0,0,1-2.2-.1,14.08,14.08,0,0,1-2-.34V98.08a15.05,15.05,0,0,0,2.05.45,13.83,13.83,0,0,0,2,.15,4.5,4.5,0,0,0,2.17-.4,1.24,1.24,0,0,0,.71-1.13,1.32,1.32,0,0,0-.12-.57,1.17,1.17,0,0,0-.4-.48,4.32,4.32,0,0,0-.91-.48c-.41-.16-1-.35-1.68-.56a12.57,12.57,0,0,1-1.47-.53,5.13,5.13,0,0,1-1.17-.71,3.36,3.36,0,0,1-.77-1,2.8,2.8,0,0,1-.28-1.3,3,3,0,0,1,1-2.17,4.17,4.17,0,0,1,1.48-.84,7.19,7.19,0,0,1,2.35-.33c.46,0,1,0,1.53.07a14.48,14.48,0,0,1,1.76.27v1.81A17.36,17.36,0,0,0,519,90a10.77,10.77,0,0,0-1.49-.11,6.67,6.67,0,0,0-1.29.11,2.54,2.54,0,0,0-.84.33,1.11,1.11,0,0,0-.46.48,1.2,1.2,0,0,0-.15.59,1.33,1.33,0,0,0,.13.57,1.37,1.37,0,0,0,.45.5,4.76,4.76,0,0,0,.94.48c.39.16.91.33,1.55.52a13.21,13.21,0,0,1,1.76.64,4.38,4.38,0,0,1,1.16.74,2.47,2.47,0,0,1,.64.93A3.26,3.26,0,0,1,521.58,97Z"/><path class="cls-20" d="M534.78,97a2.83,2.83,0,0,1-.21,1.12A3.12,3.12,0,0,1,534,99a3.91,3.91,0,0,1-.85.65,5.15,5.15,0,0,1-1,.44,6.27,6.27,0,0,1-1.12.26,7.33,7.33,0,0,1-1.13.08,21.29,21.29,0,0,1-2.2-.1,14.34,14.34,0,0,1-2-.34V98.08a15.39,15.39,0,0,0,2,.45,14,14,0,0,0,2,.15,4.5,4.5,0,0,0,2.17-.4,1.23,1.23,0,0,0,.7-1.13,1.48,1.48,0,0,0-.11-.57,1.25,1.25,0,0,0-.4-.48,4.32,4.32,0,0,0-.91-.48c-.41-.16-1-.35-1.68-.56a12.11,12.11,0,0,1-1.48-.53,5.28,5.28,0,0,1-1.16-.71,3.05,3.05,0,0,1-.77-1,2.8,2.8,0,0,1-.29-1.3,3,3,0,0,1,.23-1.08,2.84,2.84,0,0,1,.78-1.09,4.31,4.31,0,0,1,1.49-.84,7.17,7.17,0,0,1,2.34-.33c.46,0,1,0,1.54.07a14.79,14.79,0,0,1,1.76.27v1.81a17.06,17.06,0,0,0-1.83-.34,10.77,10.77,0,0,0-1.49-.11,6.48,6.48,0,0,0-1.28.11,2.69,2.69,0,0,0-.85.33,1.17,1.17,0,0,0-.46.48,1.36,1.36,0,0,0,0,1.16,1.51,1.51,0,0,0,.46.5,4.38,4.38,0,0,0,.93.48c.4.16.92.33,1.56.52a13.75,13.75,0,0,1,1.76.64,4.73,4.73,0,0,1,1.16.74,2.47,2.47,0,0,1,.64.93A3.26,3.26,0,0,1,534.78,97Z"/><path class="cls-8" d="M554.26,82.74q5.4,5,5.4,11.14a14.18,14.18,0,0,1-.26,2.62,12.63,12.63,0,0,1-.88,2.79,15.69,15.69,0,0,1-1.67,2.88,20,20,0,0,1-2.64,3L553,103.91a16.24,16.24,0,0,0,3.41-4.72A12.3,12.3,0,0,0,557.56,94,13.75,13.75,0,0,0,553,84Z"/><path class="cls-8" d="M586.88,105H586a4.73,4.73,0,0,1-3.36-1.06,4.3,4.3,0,0,1-1.1-3.22v-4a3.63,3.63,0,0,0-.13-1,1.77,1.77,0,0,0-.45-.76,2.21,2.21,0,0,0-.86-.47,4.55,4.55,0,0,0-1.34-.17h-.5V92.63h.5a5.44,5.44,0,0,0,1.4-.14,1.85,1.85,0,0,0,.84-.42,1.55,1.55,0,0,0,.42-.74,4,4,0,0,0,.12-1V87.5a6.43,6.43,0,0,1,.23-1.77,3.34,3.34,0,0,1,.77-1.35,3.57,3.57,0,0,1,1.38-.86,6.31,6.31,0,0,1,2.08-.3h.87v1.65h-.69c-1.81,0-2.72.87-2.72,2.63v2.73c0,1.91-.82,3-2.47,3.23,1.66.16,2.5,1.23,2.5,3.21v4a2.38,2.38,0,0,0,2.69,2.69h.69Z"/><path class="cls-20" d="M614.12,100a9.49,9.49,0,0,1-1.43.25c-.5,0-1,.08-1.5.08a4.8,4.8,0,0,1-3.31-1,4,4,0,0,1-1.09-3.08V90.14H603.5V88.43h3.29V85.19l2-.52v3.76h5.29v1.71h-5.29v6A2.5,2.5,0,0,0,609.5,98a2.83,2.83,0,0,0,2,.62,9,9,0,0,0,1.23-.08,11.18,11.18,0,0,0,1.4-.28Z"/><path class="cls-20" d="M618.31,88.43h1.86l.06,2.17a7.44,7.44,0,0,1,2.06-1.82,4.13,4.13,0,0,1,2-.56,3.34,3.34,0,0,1,2.78,1.18,5.27,5.27,0,0,1,.87,3.52h-2.06a3.93,3.93,0,0,0-.45-2.25A1.65,1.65,0,0,0,624,90a2.37,2.37,0,0,0-.82.15,3.5,3.5,0,0,0-.86.47,7.34,7.34,0,0,0-.93.83,15.73,15.73,0,0,0-1.06,1.21v7.56h-2.06Z"/><path class="cls-20" d="M641.49,88.43l-4,10.52a20.8,20.8,0,0,1-1.28,2.77,8.11,8.11,0,0,1-1.45,1.9,5,5,0,0,1-1.72,1.1,6,6,0,0,1-2.1.35h-.55l-.54,0v-1.85l.57.06a6.4,6.4,0,0,0,.64,0,3.3,3.3,0,0,0,1.05-.16,3,3,0,0,0,.92-.53,5,5,0,0,0,.83-1,8.8,8.8,0,0,0,.77-1.42l-4.7-11.76h2.33l3,7.78.6,1.83.68-1.88,2.75-7.73Z"/><path class="cls-20" d="M655.42,100.19h-2.27l-1.07-3.34h-6.37l-1.08,3.34h-2.17l5.09-15.31h2.86ZM651.49,95,648.9,86.8,646.31,95Z"/><path class="cls-20" d="M665.89,90.09a3,3,0,0,1,.51,1,3.68,3.68,0,0,1,.18,1.17,4.11,4.11,0,0,1-.33,1.67,3.74,3.74,0,0,1-1,1.3,4.27,4.27,0,0,1-1.46.84,5.5,5.5,0,0,1-1.86.3,6.09,6.09,0,0,1-1.39-.16,3.89,3.89,0,0,1-1-.39,4.6,4.6,0,0,0-.37.62,1.38,1.38,0,0,0-.15.65.87.87,0,0,0,.42.74,2.12,2.12,0,0,0,1.13.32l3.1.11a6.81,6.81,0,0,1,1.62.23,4,4,0,0,1,1.28.57,2.74,2.74,0,0,1,.83.93,2.59,2.59,0,0,1,.3,1.27,3.32,3.32,0,0,1-.34,1.49,3.51,3.51,0,0,1-1,1.24,5.58,5.58,0,0,1-1.8.85,9.35,9.35,0,0,1-2.59.32,11.26,11.26,0,0,1-2.43-.23,5.52,5.52,0,0,1-1.65-.64,2.5,2.5,0,0,1-.93-1,2.53,2.53,0,0,1-.3-1.22,2.85,2.85,0,0,1,.4-1.5,4.5,4.5,0,0,1,1.23-1.24,1.78,1.78,0,0,1-.52-.36,2,2,0,0,1-.37-.46,2.44,2.44,0,0,1-.21-.53,2.13,2.13,0,0,1-.07-.55,2.81,2.81,0,0,1,.36-1.4,7,7,0,0,1,.85-1.19,5.49,5.49,0,0,1-.39-.53,2.73,2.73,0,0,1-.3-.56,4,4,0,0,1-.19-.64,4.62,4.62,0,0,1-.06-.79,4.11,4.11,0,0,1,.33-1.67,3.84,3.84,0,0,1,.94-1.3,4.14,4.14,0,0,1,1.45-.83,6,6,0,0,1,2.72-.24,4.07,4.07,0,0,1,.7.15h4.27v1.66Zm-7.08,11.8a1.28,1.28,0,0,0,.87,1.22,6.22,6.22,0,0,0,2.41.38,6.36,6.36,0,0,0,1.64-.18,3.38,3.38,0,0,0,1.06-.46,1.64,1.64,0,0,0,.58-.66,1.69,1.69,0,0,0,.18-.75,1.15,1.15,0,0,0-.59-1.06,4,4,0,0,0-1.79-.4l-3.07-.1a4.61,4.61,0,0,0-.64.5,1.94,1.94,0,0,0-.39.5,2.09,2.09,0,0,0-.2.5A2.22,2.22,0,0,0,658.81,101.89Zm.62-9.62a2.82,2.82,0,0,0,.19,1,2.24,2.24,0,0,0,.53.8,2.29,2.29,0,0,0,.8.51,3,3,0,0,0,2.11,0,2.45,2.45,0,0,0,.8-.56,2.48,2.48,0,0,0,.49-.81,2.75,2.75,0,0,0,.17-1,2.66,2.66,0,0,0-.19-1,2.2,2.2,0,0,0-.53-.8,2.29,2.29,0,0,0-.8-.51,2.8,2.8,0,0,0-1-.18,2.68,2.68,0,0,0-1.09.21,2.56,2.56,0,0,0-.8.56,2.61,2.61,0,0,0-.49.8A2.8,2.8,0,0,0,659.43,92.27Z"/><path class="cls-20" d="M678.17,100.19l0-1.58a6.39,6.39,0,0,1-2,1.37,5.26,5.26,0,0,1-2.08.42,5.16,5.16,0,0,1-1.72-.25,3.35,3.35,0,0,1-1.18-.71,2.84,2.84,0,0,1-.68-1.06,4.08,4.08,0,0,1-.21-1.33,3.3,3.3,0,0,1,1.31-2.77,6.37,6.37,0,0,1,3.9-1H678v-1a2.16,2.16,0,0,0-.67-1.67,2.88,2.88,0,0,0-2-.63,9.2,9.2,0,0,0-2,.22,13.18,13.18,0,0,0-2,.64V89c.26-.1.55-.19.86-.28s.65-.17,1-.24.72-.13,1.11-.17a11,11,0,0,1,1.16-.06,7.12,7.12,0,0,1,1.92.23,3.9,3.9,0,0,1,1.44.72,3.09,3.09,0,0,1,.91,1.2,4.31,4.31,0,0,1,.32,1.71v8.11ZM678,94.84h-2.59a5,5,0,0,0-1.31.15,2.65,2.65,0,0,0-.91.43,1.9,1.9,0,0,0-.52.68,2.23,2.23,0,0,0-.17.88,2,2,0,0,0,.11.65,1.37,1.37,0,0,0,.34.55,1.55,1.55,0,0,0,.61.38,2.44,2.44,0,0,0,.91.15,3.92,3.92,0,0,0,1.61-.43A7.86,7.86,0,0,0,678,96.92Z"/><path class="cls-20" d="M687.82,90.12h-3.49V88.43h5.55V98.49h3.5v1.7H684v-1.7h3.87Zm.71-6.63a1.61,1.61,0,0,1,.63.13,1.39,1.39,0,0,1,.51.34,1.57,1.57,0,0,1,.34.51,1.57,1.57,0,0,1,0,1.25,1.54,1.54,0,0,1-.85.86,1.59,1.59,0,0,1-1.26,0,1.54,1.54,0,0,1-.85-.86,1.57,1.57,0,0,1,0-1.25,1.57,1.57,0,0,1,.34-.51,1.39,1.39,0,0,1,.51-.34A1.61,1.61,0,0,1,688.53,83.49Z"/><path class="cls-20" d="M697,88.43h1.82l.08,1.9a8.86,8.86,0,0,1,1-1,5.69,5.69,0,0,1,.94-.65,3.44,3.44,0,0,1,.94-.34,4.71,4.71,0,0,1,1-.1,3.43,3.43,0,0,1,2.75,1.07,4.81,4.81,0,0,1,.93,3.23v7.67h-2V92.68a3.33,3.33,0,0,0-.51-2,1.85,1.85,0,0,0-1.54-.67,2.28,2.28,0,0,0-.73.12,2.65,2.65,0,0,0-.75.38,6.59,6.59,0,0,0-.83.75,15.24,15.24,0,0,0-1,1.17v7.8h-2Z"/><path class="cls-8" d="M717.24,105.12q-5.4-5-5.4-11.07a13.74,13.74,0,0,1,1.21-5.66,15.65,15.65,0,0,1,1.69-2.83,20.44,20.44,0,0,1,2.55-2.82L718.47,84a13.73,13.73,0,0,0-4.55,10,12.52,12.52,0,0,0,1.15,5.23,16.19,16.19,0,0,0,3.4,4.73Z"/><path class="cls-8" d="M725.8,82.74q5.4,5,5.4,11.14a14.18,14.18,0,0,1-.26,2.62,12.63,12.63,0,0,1-.88,2.79,15.69,15.69,0,0,1-1.67,2.88,20,20,0,0,1-2.64,3l-1.18-1.21A16.24,16.24,0,0,0,728,99.19,12.3,12.3,0,0,0,729.1,94a13.75,13.75,0,0,0-4.53-10Z"/><path class="cls-8" d="M737.64,102.6a4.44,4.44,0,0,0,1.16-.11,3.41,3.41,0,0,0,1-.38,2.1,2.1,0,0,0,.69-.63,1.47,1.47,0,0,0,.26-.85,1.67,1.67,0,0,0-.17-.8,4.58,4.58,0,0,0-.38-.56,4.14,4.14,0,0,1-.38-.55,1.52,1.52,0,0,1-.17-.79,1.61,1.61,0,0,1,.09-.51,1.49,1.49,0,0,1,.29-.5,1.52,1.52,0,0,1,.49-.36,1.7,1.7,0,0,1,.71-.14,2,2,0,0,1,.79.17,1.85,1.85,0,0,1,.67.52,2.7,2.7,0,0,1,.45.88,3.87,3.87,0,0,1,.17,1.24,5.17,5.17,0,0,1-.35,1.87,4.6,4.6,0,0,1-1.07,1.59,5.07,5.07,0,0,1-1.77,1.1,6.91,6.91,0,0,1-2.47.41Zm3.67-14.38a1.81,1.81,0,0,1,.69.14,1.91,1.91,0,0,1,1,1,1.69,1.69,0,0,1,0,1.39,2.22,2.22,0,0,1-.39.57,1.88,1.88,0,0,1-.58.38,1.8,1.8,0,0,1-1.39,0,1.79,1.79,0,0,1-.56-.38,1.78,1.78,0,0,1-.39-2,1.61,1.61,0,0,1,.39-.57,1.85,1.85,0,0,1,.56-.4A1.82,1.82,0,0,1,741.31,88.22Z"/><path class="cls-8" d="M763.79,83.22h.87A4.69,4.69,0,0,1,768,84.29a4.26,4.26,0,0,1,1.1,3.21v2.71a3.56,3.56,0,0,0,.13,1,1.66,1.66,0,0,0,.45.77,2.21,2.21,0,0,0,.86.47,4.71,4.71,0,0,0,1.35.16h.5v1.63h-.5a5.93,5.93,0,0,0-1.4.14,2,2,0,0,0-.85.43,1.56,1.56,0,0,0-.42.73,4.13,4.13,0,0,0-.12,1.06v4.1a6.51,6.51,0,0,1-.23,1.78,3.25,3.25,0,0,1-.77,1.34,3.42,3.42,0,0,1-1.38.86,6.31,6.31,0,0,1-2.08.3h-.87v-1.64h.7c1.81,0,2.71-.88,2.71-2.64v-4c0-1.91.82-3,2.47-3.21-1.66-.18-2.5-1.26-2.5-3.23V87.55a2.37,2.37,0,0,0-2.68-2.68h-.7Z"/><path class="cls-8" d="M777.23,102.6a4.48,4.48,0,0,0,1.16-.11,3.64,3.64,0,0,0,1-.38,2.21,2.21,0,0,0,.69-.63,1.47,1.47,0,0,0,.25-.85,1.56,1.56,0,0,0-.17-.8,3.67,3.67,0,0,0-.38-.56,4.14,4.14,0,0,1-.38-.55,1.62,1.62,0,0,1-.17-.79,1.4,1.4,0,0,1,.1-.51,1.46,1.46,0,0,1,.28-.5,1.64,1.64,0,0,1,.49-.36,1.73,1.73,0,0,1,.71-.14,1.93,1.93,0,0,1,.79.17,1.77,1.77,0,0,1,.67.52,2.71,2.71,0,0,1,.46.88,4.18,4.18,0,0,1,.17,1.24,5,5,0,0,1-.36,1.87,4.57,4.57,0,0,1-1.06,1.59,5.26,5.26,0,0,1-1.77,1.1,6.91,6.91,0,0,1-2.47.41Zm3.67-14.38a1.81,1.81,0,0,1,.69.14,2,2,0,0,1,1,1,1.8,1.8,0,0,1,0,1.39,2,2,0,0,1-.4.57,1.73,1.73,0,0,1-.57.38,1.8,1.8,0,0,1-1.39,0,1.75,1.75,0,0,1-1-1,1.69,1.69,0,0,1,0-1.39,1.73,1.73,0,0,1,.38-.57,2,2,0,0,1,.57-.4A1.82,1.82,0,0,1,780.9,88.22Z"/><path class="cls-21" d="M569.72,224.14v-9.69a2.84,2.84,0,0,1,2.84-2.84,2.87,2.87,0,0,1,2,.83h0l-13.13-13.12v24.82a16.56,16.56,0,0,0,33.11,0h0V178a41.48,41.48,0,1,1-8.28-2.62h0v48.81a8.28,8.28,0,1,1-16.55,0Z"/><path class="cls-22" d="M643.68,235.16q0,8.63-5.09,8.63a5.25,5.25,0,0,1-3.14-.87v3.72a7.83,7.83,0,0,0,3.09.53A7.71,7.71,0,0,0,645,244q2.41-3.17,2.42-8.88V193.38h-3.76Z"/><polygon class="cls-22" points="676.78 207.48 660.14 207.48 660.14 193.38 656.38 193.38 656.38 225.52 660.14 225.52 660.14 210.86 676.78 210.86 676.78 225.52 680.54 225.52 680.54 193.38 676.78 193.38 676.78 207.48"/><path class="cls-22" d="M703.24,192.84q-7.22,0-11.41,4.62t-4.19,12.37q0,7.21,4.12,11.72a14.08,14.08,0,0,0,10.94,4.51q7,0,11.17-4.57T718,209.05q0-7.25-4.06-11.72A13.81,13.81,0,0,0,703.24,192.84Zm7.8,26.38a10.56,10.56,0,0,1-8.34,3.46,10,10,0,0,1-8-3.62q-3.09-3.63-3.08-9.56a14.15,14.15,0,0,1,3.16-9.6,10.37,10.37,0,0,1,8.22-3.65,10.16,10.16,0,0,1,8.16,3.47q3,3.48,3,9.84Q714.09,215.77,711,219.22Z"/><path class="cls-22" d="M738.63,192.84q-7.21,0-11.41,4.62T723,209.83q0,7.21,4.11,11.72a14.09,14.09,0,0,0,11,4.51q7,0,11.16-4.57t4.17-12.44q0-7.25-4.07-11.72A13.77,13.77,0,0,0,738.63,192.84Zm7.8,26.38a10.56,10.56,0,0,1-8.34,3.46,10.08,10.08,0,0,1-8-3.62,16.27,16.27,0,0,1,.08-19.16,10.39,10.39,0,0,1,8.23-3.65,10.16,10.16,0,0,1,8.16,3.47q3,3.48,3,9.84Q749.48,215.77,746.43,219.22Z"/><path class="cls-22" d="M768.14,208.8l13.79-15.42h-4.69l-12,14a8.45,8.45,0,0,0-.85,1.1h-.09V193.38h-3.77v32.14h3.77V209.7h.09a7.93,7.93,0,0,0,.85,1.12l12.42,14.7h5.24Z"/><path class="cls-22" d="M656.21,245.73a3.87,3.87,0,0,0,.59.36,4.27,4.27,0,0,0,.67.27,5.63,5.63,0,0,0,.68.17,5.14,5.14,0,0,0,.66.05,2.94,2.94,0,0,0,1.83-.47,1.6,1.6,0,0,0,.6-1.35,1.66,1.66,0,0,0-.58-1.34,4,4,0,0,0-.76-.55l-1.07-.62a11.44,11.44,0,0,1-1.18-.71,4,4,0,0,1-.8-.68,2.27,2.27,0,0,1-.46-.75,2.65,2.65,0,0,1-.15-.92,2.53,2.53,0,0,1,.28-1.17,3,3,0,0,1,.75-.88,3.44,3.44,0,0,1,1.1-.55,4.64,4.64,0,0,1,1.35-.2,5.66,5.66,0,0,1,2.12.35v1.1a4.41,4.41,0,0,0-2.23-.54,3.7,3.7,0,0,0-.9.11,2.4,2.4,0,0,0-.74.34,1.67,1.67,0,0,0-.5.56,1.61,1.61,0,0,0-.18.78,2,2,0,0,0,.12.72,1.61,1.61,0,0,0,.4.57,3.54,3.54,0,0,0,.71.53c.3.18.66.39,1.09.61s.84.48,1.18.7a4.62,4.62,0,0,1,.83.72,2.35,2.35,0,0,1,.66,1.7,2.7,2.7,0,0,1-.26,1.24,2.35,2.35,0,0,1-.73.89,3.52,3.52,0,0,1-1.12.53,5.38,5.38,0,0,1-1.43.18,4.88,4.88,0,0,1-.61,0l-.71-.12a4.5,4.5,0,0,1-.68-.19,2.46,2.46,0,0,1-.53-.23Z"/><path class="cls-22" d="M668,237.48v9.82h-1v-9.82H664v-.91h7.18v.91Z"/><path class="cls-22" d="M679.16,247.3,678,244.13h-4.6l-1.15,3.17h-1.11l4.09-10.73h1l4.06,10.73Zm-3.27-8.85c0-.1-.07-.21-.11-.33a3.45,3.45,0,0,1-.1-.43h0a3.45,3.45,0,0,1-.1.43c0,.12-.07.23-.1.33l-1.74,4.77h3.93Z"/><path class="cls-22" d="M684.47,243.28v4h-1v-4l-3.37-6.74h1.13l2.45,5,.12.27.18.46h0c0-.09.07-.19.12-.31l.21-.41,2.56-5H688Z"/><path class="cls-22" d="M702,246.9a6.57,6.57,0,0,1-2.83.59,5.3,5.3,0,0,1-2.07-.4,4.6,4.6,0,0,1-1.58-1.11,4.88,4.88,0,0,1-1-1.69,6.2,6.2,0,0,1-.36-2.14,6.78,6.78,0,0,1,.38-2.28,5.36,5.36,0,0,1,1.08-1.82,5.09,5.09,0,0,1,1.7-1.22,5.6,5.6,0,0,1,2.24-.44,6.69,6.69,0,0,1,2.45.42v1.06a5.49,5.49,0,0,0-2.46-.57,4.52,4.52,0,0,0-1.85.36,3.89,3.89,0,0,0-1.36,1,4.6,4.6,0,0,0-.85,1.52,6.06,6.06,0,0,0-.29,1.9,5.88,5.88,0,0,0,.26,1.75,4.4,4.4,0,0,0,.78,1.43,3.71,3.71,0,0,0,1.27,1,4.13,4.13,0,0,0,1.78.36,5.45,5.45,0,0,0,2.72-.65Z"/><path class="cls-22" d="M708.87,247.49a5,5,0,0,1-2.09-.42,4.69,4.69,0,0,1-1.57-1.16,4.94,4.94,0,0,1-1-1.73,6.41,6.41,0,0,1-.35-2.12,7.36,7.36,0,0,1,.35-2.31,4.88,4.88,0,0,1,1-1.78,4.37,4.37,0,0,1,1.63-1.16,5.43,5.43,0,0,1,2.2-.42,5,5,0,0,1,2,.41,4.46,4.46,0,0,1,1.54,1.13,5.14,5.14,0,0,1,1,1.71,6.73,6.73,0,0,1,.34,2.15,7.18,7.18,0,0,1-.34,2.26,5.16,5.16,0,0,1-1,1.81,4.5,4.5,0,0,1-1.6,1.19A5.17,5.17,0,0,1,708.87,247.49ZM709,237.3a3.78,3.78,0,0,0-1.72.37,3.67,3.67,0,0,0-1.27,1,4.2,4.2,0,0,0-.78,1.48,6.23,6.23,0,0,0,0,3.56,4.6,4.6,0,0,0,.73,1.47,3.53,3.53,0,0,0,1.24,1,3.73,3.73,0,0,0,1.75.38,4.19,4.19,0,0,0,1.76-.34,3.62,3.62,0,0,0,1.27-1,4.12,4.12,0,0,0,.77-1.47,6.48,6.48,0,0,0,.26-1.86,6.91,6.91,0,0,0-.23-1.79,4.15,4.15,0,0,0-.71-1.48,3.35,3.35,0,0,0-1.23-1A4,4,0,0,0,709,237.3Z"/><path class="cls-22" d="M723.91,247.3,718,238.69a4,4,0,0,1-.22-.34,1.55,1.55,0,0,1-.18-.33h0c0,.08,0,.21,0,.37s0,.36,0,.6v8.31h-1V236.57h1.1l5.86,8.51.25.38.19.32h0c0-.16,0-.35,0-.55s0-.43,0-.68v-8h1V247.3Z"/><path class="cls-22" d="M735.54,247.3l-6-8.61c-.07-.11-.15-.22-.22-.34a3.69,3.69,0,0,1-.18-.33h0a3.12,3.12,0,0,1,0,.37c0,.16,0,.36,0,.6v8.31h-1V236.57h1.1l5.86,8.51c.09.13.17.26.24.38l.2.32h0c0-.16,0-.35,0-.55s0-.43,0-.68v-8h1V247.3Z"/><path class="cls-22" d="M739.81,247.3V236.57H745v.91h-4.23v3.94h3.92v.9h-3.92v4.08h4.47v.9Z"/><path class="cls-22" d="M755.19,246.9a6.54,6.54,0,0,1-2.83.59,5.3,5.3,0,0,1-2.07-.4,4.7,4.7,0,0,1-1.58-1.11,5,5,0,0,1-1-1.69,6.2,6.2,0,0,1-.36-2.14,6.78,6.78,0,0,1,.38-2.28,5.36,5.36,0,0,1,1.08-1.82,5,5,0,0,1,1.71-1.22,5.53,5.53,0,0,1,2.24-.44,6.68,6.68,0,0,1,2.44.42v1.06a5.49,5.49,0,0,0-2.46-.57,4.52,4.52,0,0,0-1.85.36,3.89,3.89,0,0,0-1.36,1,4.41,4.41,0,0,0-.84,1.52,5.78,5.78,0,0,0-.3,1.9,5.58,5.58,0,0,0,.27,1.75,4.2,4.2,0,0,0,.77,1.43,3.65,3.65,0,0,0,1.28,1,4.08,4.08,0,0,0,1.77.36,5.45,5.45,0,0,0,2.72-.65Z"/><path class="cls-22" d="M761,237.48v9.82h-1v-9.82h-3.09v-.91h7.18v.91Z"/><path class="cls-22" d="M766.33,247.3V236.57h5.23v.91h-4.23v3.94h3.92v.9h-3.92v4.08h4.47v.9Z"/><path class="cls-22" d="M774.5,247.3V236.57h2.82a5.85,5.85,0,0,1,4.16,1.32,5.09,5.09,0,0,1,1.41,3.9,6.23,6.23,0,0,1-.39,2.26,4.83,4.83,0,0,1-1.14,1.74,5,5,0,0,1-1.79,1.12,6.87,6.87,0,0,1-2.38.39Zm1-9.82v8.92h1.64a6.06,6.06,0,0,0,2-.3,4,4,0,0,0,1.48-.88,3.83,3.83,0,0,0,.92-1.44,5.37,5.37,0,0,0,.32-2q0-4.33-4.58-4.34Z"/><path class="cls-10" d="M206.82,209.06a21.68,21.68,0,0,1-14.64,20.86c-1.11.21-1.52-.48-1.52-1,0-.72,0-4.36,0-7.3a5.17,5.17,0,0,0-1.48-4c4.88-.55,10-1.22,10-9.65,0-2.39-.86-3.59-2.25-5.14a8.28,8.28,0,0,0-.23-5.93c-1.82-.57-6,2.36-6,2.36a20.7,20.7,0,0,0-11,0s-4.2-2.92-6-2.36a8.22,8.22,0,0,0-.23,5.93,6.61,6.61,0,0,0-2.06,5.14c0,8.4,4.92,9.11,9.8,9.65a4.89,4.89,0,0,0-1.39,2.94c-1.25.58-4.45,1.55-6.37-1.82a4.58,4.58,0,0,0-3.37-2.25c-2.13,0-.14,1.34-.14,1.34,1.44.65,2.43,3.19,2.43,3.19,1.28,3.92,7.4,2.61,7.4,2.61,0,1.83,0,4.81,0,5.36s-.39,1.25-1.51,1.05a21.89,21.89,0,0,1-14.8-20.88,20.94,20.94,0,0,1,21.37-21.3C197,187.76,206.82,197,206.82,209.06Zm-35.38,8c.18.09.26.23.2.34a.25.25,0,0,1-.37.06c-.18-.09-.26-.23-.2-.34S171.27,217.05,171.44,217.1Zm1,.86c.15.16.18.36.06.45s-.31.05-.45-.09-.17-.36-.06-.45S172.32,217.82,172.46,218Zm.93,1.2a.4.4,0,0,1,0,.54c-.11.09-.35,0-.49-.2s-.14-.43,0-.51S173.27,219,173.39,219.16Zm1.07,1.2a.42.42,0,0,1,.12.54c-.12.14-.37.11-.57-.09s-.25-.43-.11-.54S174.27,220.16,174.46,220.36Zm1.37.8c.27.08.43.28.38.45a.4.4,0,0,1-.54.18c-.26,0-.44-.25-.38-.43A.46.46,0,0,1,175.83,221.16Zm1.72.91c-.28,0-.49-.12-.49-.32s.21-.31.46-.31.49.11.49.31S177.81,222.07,177.55,222.07Zm2.12-.6c0,.17-.15.34-.41.4s-.48-.06-.51-.23.15-.37.4-.43S179.64,221.3,179.67,221.47Z"/></svg>
