<?xml version="1.0" encoding="utf-8"?>
<!-- Generator: Adobe Illustrator 25.0.1, SVG Export Plug-In . SVG Version: 6.00 Build 0)  -->
<svg version="1.1" id="Layer_1" xmlns="http://www.w3.org/2000/svg" xmlns:xlink="http://www.w3.org/1999/xlink" x="0px" y="0px"
	 viewBox="0 0 830 280" style="enable-background:new 0 0 830 280;" xml:space="preserve">
<style type="text/css">
	.st0{fill:#1A2B34;}
	.st1{fill:#FFFFFF;stroke:#231F20;stroke-miterlimit:10;}
	.st2{fill:#F5B9A5;}
	.st3{fill:#E8987C;}
	.st4{fill:#1C75BC;}
	.st5{fill:#3C2415;}
	.st6{fill:#8D4939;}
	.st7{fill:#FFFFFF;}
	.st8{fill:#E6E7E8;}
	.st9{fill:#231F20;}
	.st10{fill:#E6807D;}
	.st11{fill:#FEFEFE;}
	.st12{fill:#25130F;}
	.st13{fill:#48281C;}
	.st14{fill:#1F153A;}
	.st15{fill:#0B0607;}
	.st16{fill:#D1D3D4;}
	.st17{fill:#939598;}
	.st18{fill:#EA5F5E;}
	.st19{fill:#4AB097;}
</style>
<rect y="0" class="st0" width="830" height="280"/>
<path class="st1" d="M79.8,120.1c0,0-9.8-0.7-6.9,11.7s9.7,9.7,9.7,9.7S84.6,121.1,79.8,120.1z"/>
<path class="st2" d="M164.1,113.3c0,0-1.9,12.2,2.4,13.9c4.3,1.7,9.2,1.4,12.8,3.8s8.2,13,8.2,13s0.1,8.8-7.9,10.2
	s-32.6-0.7-32.6-0.7l-18,1.2l-10.4-2.1l4.4-19.6c0,0,8.4-0.5,10.3-5.8s1.7-13.8,1.7-13.8S157.8,109.9,164.1,113.3z"/>
<path class="st3" d="M135.6,115.2c0,0,0.3,18.9,14,18.4s13.6-19.9,13.6-19.9S137.4,111.7,135.6,115.2z"/>
<path class="st2" d="M97.9,192.3c0,0-9.1,13.8-13.7,19.5S68.3,224.9,65.6,225s-4.7-0.6-8.7-8.1s-4.7-24.5-3.1-39.3S60,142,60,142
	s0.4-0.4,0.1-4s0.5-7.1,1.3-8.4s1.4-1.5,3.8-4.3c2.5-2.8,14.7-3.1,14.7-3.1c2.7-0.1,2.2,5,0.5,4.8c-1.3,0-2.6,0.3-3.8,0.8
	c0,0,3,2,3.7,2.5s1.2,0.9,0.6,2.9c-0.2,1.1-0.8,2-1.6,2.7c0,0-1.1,2.6-1.7,3.7c-0.3,0.6-1,1.1-1.7,1.1c-0.2,1.6-0.8,3.1-1.8,4.3
	c-1.6,1.8-4.1,0.7-4.1,0.7s-0.4,6.3-0.6,10.4s0.8,17.3,1.3,22c0.3,3,0.8,5.9,1.4,8.8l0.4-0.7l2.3-3.8c0.9-1.5,1.9-3.2,2.8-4.5
	c2.2-3.5,7.3-6.9,7.3-6.9L97.9,192.3z"/>
<path class="st4" d="M122.8,131.8c0,0,6.8,17.2,28.8,15.6s27.1-18.3,27.1-18.3c11.9,5.3,22,13.9,29.2,24.8
	c11.6,18,11.1,21.3,11.1,21.3l-13.5,15.6l-15.9-6.9l-19.8,5.8l-20,5.4l-29.2-12.2l-6.3-8.6c0,0-16.2,16.3-16.1,20.8
	c-1.1-1.8-8.8-16-19-23.9c0,0,13.7-21.8,26-29.7S118.8,132.7,122.8,131.8z"/>
<path class="st5" d="M98.2,195.4l-0.4-0.1c-0.1-0.2-0.2-0.4-0.4-0.8c-6.1-10.5-12.4-18.2-18.4-23l-0.3-0.2l0.2-0.3
	c0.1-0.2,13.9-22,26.1-29.8s13.7-8.8,17.8-9.8l0.4-0.1l0.1,0.4c0.1,0.2,6.3,15.4,25.5,15.4c0.9,0,1.8,0,2.8-0.1
	c21.4-1.6,26.6-17.8,26.7-18l0.1-0.5l0.4,0.2c12,5.4,22.2,14.1,29.4,25c11.4,17.6,11.2,21.3,11.2,21.6v0.1l-0.1,0.1l-13.8,15.8
	l-16.1-6.9l-19.6,5.7l-20.1,5.5l-29.4-12.3l-6-8.3c-4.7,4.8-15.6,16.6-15.6,20.1L98.2,195.4z M120.8,182.5l28.9,12.1l19.8-5.4
	l19.9-5.8l15.8,6.8l13.2-15.2c0-0.7-0.8-5-11-20.9c-7.1-10.7-16.9-19.1-28.6-24.5c-1,2.7-7.3,16.7-27.3,18.1c-1,0.1-1.9,0.1-2.9,0.1
	c-18.2,0-25.1-13.2-26.2-15.6c-3.7,0.9-5.3,1.9-17.2,9.6c-11.2,7.2-23.9,26.5-25.6,29.2c6.1,4.8,12.2,12.5,18.2,22.8
	c1.9-5.7,15.3-19.3,16-19.9l0.4-0.4L120.8,182.5z"/>
<path class="st3" d="M76.7,200.2c-1.6,4.1-2.7,4.8-3.1,4.9c0,0-1.1-13.7-1.6-18.2c0.5-0.8,1.7-2.9,2.7-4.4
	C75.5,185.7,78,196.7,76.7,200.2z"/>
<path class="st6" d="M73.6,205c-0.4-1.5-0.7-3-0.9-4.5c-0.1-0.8-0.2-1.5-0.3-2.3l-0.2-2.3l-0.1-2.3c0-0.8-0.1-1.5-0.1-2.3
	s0-1.5,0-2.3V188v-0.6c0-0.2,0-0.4,0-0.6l0.2-0.2c0.1,0.4,0.2,0.9,0.2,1.3c0.1,0.4,0.1,0.8,0.2,1.1c0.1,0.8,0.2,1.5,0.2,2.3
	c0.2,1.5,0.3,3,0.4,4.6c0.2,3,0.4,6.1,0.6,9.1L73.6,205z"/>
<path class="st6" d="M76.1,127.8c-1.1,0-2.2,0-3.2-0.1l-1.6-0.1c-0.5,0-1.1,0-1.6,0.1c0.2-0.2,0.5-0.3,0.8-0.3
	c0.3-0.1,0.5-0.1,0.8-0.1c0.5,0,1.1,0,1.7,0C74,127.4,75.1,127.5,76.1,127.8z"/>
<path class="st6" d="M70.6,133.9c1.5,0.2,2.9,0.6,4.3,0.9c0.7,0.2,1.4,0.4,2.1,0.6s1.4,0.4,2.1,0.6c-0.7,0-1.5-0.1-2.2-0.3
	c-0.7-0.1-1.4-0.3-2.2-0.5C73.4,134.8,72,134.4,70.6,133.9z"/>
<path class="st6" d="M68.7,140.5c1.2-0.1,2.4,0,3.5,0.1l1.8,0.1c0.6,0,1.2,0.1,1.8,0.1c-0.6,0.2-1.2,0.2-1.8,0.3c-0.6,0-1.2,0-1.8,0
	C71.1,140.9,69.9,140.8,68.7,140.5z"/>
<path class="st6" d="M65.8,144.6c0.7,0.2,1.3,0.4,2,0.6l1,0.3c0.3,0.1,0.7,0.1,1,0.2c-0.7,0.1-1.4,0.1-2.1-0.1
	c-0.3-0.1-0.7-0.2-1-0.4C66.4,145.1,66.1,144.9,65.8,144.6z"/>
<path class="st7" d="M79.8,119.4l0.9,21.7c0,0.7,0.6,1.3,1.3,1.5c4,0.8,8.1,1.2,12.2,1.2c4.3-0.1,8.5-1.1,12.4-2.9
	c0.6-0.3,0.9-0.8,0.9-1.4v-20.9c0-0.8-0.6-1.5-1.4-1.6c-4.4-0.3-17.7-1.2-25,0.8C80.3,117.9,79.8,118.6,79.8,119.4z"/>
<path class="st8" d="M80,121.4h27.5l-0.2-3.7l-22.1-0.7l-5,0.5C80.3,117.7,78.9,120.2,80,121.4z"/>
<path class="st9" d="M94.2,144.3c-4.1,0-8.3-0.5-12.3-1.3c-0.9-0.2-1.6-1-1.6-1.9l-0.9-21.7c0-0.9,0.6-1.8,1.5-2
	c7.5-2,21.2-1.1,25.2-0.8c1,0.1,1.9,1,1.8,2v20.9c0,0.8-0.5,1.5-1.2,1.8C102.8,143.2,98.5,144.2,94.2,144.3z M94.5,117
	c-4.5-0.1-9,0.3-13.4,1.2c-0.5,0.1-0.9,0.6-0.8,1.2l0.9,21.7c0,0.5,0.4,1,0.9,1.1c4,0.8,8.1,1.2,12.2,1.2c4.2-0.1,8.4-1.1,12.2-2.9
	c0.4-0.2,0.7-0.6,0.7-1v-21c0-0.6-0.4-1.1-1-1.1C104,117.3,99.4,117,94.5,117L94.5,117z"/>
<path class="st7" d="M78.9,116.5c0,0-0.3-2,2.3-2s26.2-0.4,26.2-0.4s2.8,0.3,1.9,2c-0.6,1-1.6,1.7-2.7,1.8l-25.5,0.7
	C81.1,118.7,78.5,119.4,78.9,116.5z"/>
<path class="st9" d="M80.4,119.2c-0.5,0-1-0.1-1.4-0.4c-0.6-0.6-0.8-1.4-0.6-2.2c0-0.6,0.2-1.2,0.5-1.6c0.6-0.6,1.4-0.9,2.3-0.8
	c2.6,0,26-0.4,26.2-0.4h0.1c0.2,0,1.8,0.2,2.3,1.2c0.2,0.4,0.2,1-0.1,1.4c-0.7,1.1-1.8,1.9-3.1,2.1l-25.5,0.7
	C81,119.1,80.7,119.1,80.4,119.2z M107.4,114.6c-1,0-23.7,0.4-26.2,0.4c-0.6-0.1-1.2,0.1-1.6,0.5c-0.2,0.3-0.3,0.6-0.3,1v0.1
	c-0.1,0.5,0,1,0.3,1.5c0.4,0.2,0.9,0.3,1.4,0.2h0.1l25.5-0.7l0,0c1-0.2,1.8-0.7,2.4-1.6c0.1-0.2,0.1-0.4,0.1-0.6
	C108.9,114.9,107.9,114.6,107.4,114.6L107.4,114.6z"/>
<path class="st8" d="M260.6,160.5c-0.4-0.2-2.1-0.5-4.9-0.6c-24.2-1.5-128.7-0.3-137.9,0.6c-10.3,1-11.7,7.5-11.7,7.5
	c-2.7,4,2,80.3,3.2,87.7c0,0.1,0,0.3,0.1,0.4c1,4.4,143.6,1.8,151.2-0.8C268.3,252.5,264.1,162.9,260.6,160.5z M263.8,241.5
	c-0.2,2.6-0.5,5.1-1,7.6c-0.2,1.2-0.6,2.5-1,3.6c-0.2,0.6-0.5,1.1-0.8,1.6c-0.1,0.2-0.3,0.3-0.5,0.4c-0.3,0.1-0.6,0.2-0.8,0.2
	c-1.2,0.2-2.5,0.3-3.8,0.4s-2.6,0.2-3.8,0.3c-5.1,0.3-10.2,0.5-15.4,0.7c-10.3,0.4-20.5,0.6-30.8,0.8s-20.6,0.3-30.8,0.4
	s-20.6,0.1-30.8,0c-5.1,0-10.3-0.1-15.4-0.3c-2.6-0.1-5.1-0.2-7.7-0.3s-5.1-0.3-7.6-0.6c-0.6-0.1-1.2-0.2-1.8-0.3
	c-0.3,0-0.6-0.1-0.9-0.2l-0.3-0.1c30.9,2.4,135.2-2.7,135.2-2.7s7.3-0.8,12.8-10.8c4.8-8.9-1.2-68.2-2.6-81.8c0.5,0,1,0.1,1.5,0.1
	c0.6,0,1.3,0.1,1.9,0.2l0.5,0.1c0.1,0,0.3,0,0.4,0.1l0.2,0.1h0.1c0,0,0.1,0.1,0.1,0.2c0.2,0.6,0.4,1.1,0.5,1.7
	c0.1,0.6,0.3,1.2,0.4,1.9c0.4,2.5,0.8,5.1,1,7.6c0.5,5.1,0.9,10.2,1.2,15.4c0.6,10.2,0.9,20.5,0.9,30.8c0,5.1-0.1,10.3-0.3,15.4
	C264.2,236.3,264,238.9,263.8,241.5L263.8,241.5z"/>
<path class="st9" d="M265.3,218.4c0-5.2-0.1-10.3-0.3-15.4c-0.2-5.1-0.4-10.3-0.6-15.4s-0.6-10.3-1.1-15.4c-0.2-2.6-0.5-5.1-0.9-7.7
	c-0.1-0.6-0.2-1.3-0.4-1.9c-0.1-0.7-0.3-1.3-0.6-1.9c0-0.1-0.1-0.2-0.2-0.3c0-0.1-0.1-0.1-0.1-0.1c-0.1-0.1-0.1-0.1-0.2-0.1
	l-0.3-0.1l-0.3-0.1c-0.2,0-0.3-0.1-0.5-0.1l-0.5-0.1c-0.6-0.1-1.3-0.1-1.9-0.2l-1.6-0.1c-4.6-0.3-9.2-0.4-13.8-0.6
	c-5.1-0.1-10.3-0.2-15.4-0.3c-20.6-0.3-41.1,0-61.7,0.3c-5.1,0.1-10.3,0.2-15.4,0.3l-15.4,0.4c-5.1,0.1-10.3,0.3-15.4,0.7
	c-0.7,0-1.3,0.2-1.9,0.2s-1.3,0.3-1.9,0.4c-0.3,0.1-0.6,0.2-0.9,0.3l-0.9,0.3c-0.6,0.2-1.2,0.5-1.8,0.8c-1.2,0.6-2.2,1.4-3.1,2.4
	c-0.9,1-1.5,2.1-1.9,3.4c-0.2,0.3-0.3,0.6-0.3,0.9c-0.1,0.3-0.1,0.6-0.2,0.9c-0.1,0.6-0.2,1.3-0.2,1.9c-0.1,1.3-0.2,2.6-0.2,3.9
	c-0.1,2.6-0.1,5.1-0.1,7.7c0,5.1,0.1,10.3,0.3,15.4c0.3,10.3,0.8,20.5,1.3,30.8c0.3,5.1,0.6,10.3,1,15.4c0.2,2.6,0.4,5.1,0.6,7.7
	l0.2,1.9c0,0.3,0.1,0.6,0.1,1l0,0c0,0.2,0,0.3,0.1,0.5c0,0.1,0,0.1,0.1,0.2c0,0.1,0.1,0.3,0.2,0.4c0.1,0.1,0.1,0.1,0.2,0.2l0.2,0.1
	c0.4,0.2,0.7,0.3,1.1,0.4c0.3,0.1,0.7,0.2,1,0.2c0.7,0.1,1.3,0.2,2,0.3c5.2,0.6,10.3,0.8,15.5,1c5.1,0.2,10.3,0.3,15.4,0.3
	c20.6,0.2,41.1-0.1,61.7-0.6c10.3-0.2,20.6-0.6,30.8-1c5.1-0.2,10.3-0.5,15.4-0.9c1.3-0.1,2.6-0.2,3.8-0.3c1.3-0.1,2.6-0.2,3.9-0.5
	c0.3-0.1,0.7-0.1,1-0.3c0.4-0.2,0.7-0.4,1-0.8c0.4-0.6,0.7-1.2,0.9-1.9c0.4-1.2,0.8-2.5,1-3.8c0.4-2.5,0.7-5.1,0.9-7.7
	c0.2-2.6,0.3-5.1,0.4-7.7s0.1-5.1,0.2-7.7S265.3,220.9,265.3,218.4z M264.3,233.8c-0.1,2.6-0.3,5.1-0.5,7.7s-0.5,5.1-1,7.6
	c-0.2,1.2-0.6,2.5-1,3.6c-0.2,0.6-0.5,1.1-0.8,1.6c-0.1,0.2-0.3,0.3-0.5,0.4c-0.3,0.1-0.6,0.2-0.8,0.2c-1.2,0.2-2.5,0.3-3.8,0.4
	s-2.6,0.2-3.8,0.3c-5.1,0.3-10.2,0.5-15.4,0.7c-10.3,0.4-20.5,0.6-30.8,0.8s-20.6,0.3-30.8,0.4s-20.6,0.1-30.8,0
	c-5.1,0-10.3-0.1-15.4-0.3c-2.6-0.1-5.1-0.2-7.7-0.3s-5.1-0.3-7.6-0.6c-0.6-0.1-1.2-0.2-1.8-0.3c-0.3,0-0.6-0.1-0.9-0.2l-0.3-0.1
	l0,0l-0.3-0.1c0,0,0,0.1,0,0.1c0,0,0,0,0,0.1v-0.1c0,0,0-0.1-0.1-0.1l0,0h0.1c0-0.1,0-0.2,0-0.3c0-0.3-0.1-0.6-0.1-0.9l-0.2-1.9
	c-0.2-2.5-0.5-5.1-0.7-7.7c-0.4-5.1-0.8-10.2-1.1-15.4c-0.7-10.2-1.3-20.5-1.8-30.8c-0.2-5.1-0.4-10.3-0.6-15.4
	c-0.1-2.6-0.1-5.1-0.1-7.7c0-1.3,0-2.6,0.1-3.8c0-0.6,0.1-1.3,0.1-1.9c0-0.6,0.2-1.3,0.4-1.8c0.9-2.4,2.7-4.4,5-5.4
	c2.3-1.1,4.8-1.7,7.3-1.8c2.6-0.1,5.1-0.2,7.7-0.2l7.7-0.1c10.3-0.2,20.6-0.2,30.8-0.3c20.6-0.2,41.1-0.2,61.7-0.2
	c5.1,0,10.3,0,15.4,0.1c2.6,0,5.1,0,7.7,0.1c2.1,0.1,4.2,0.1,6.2,0.2c0.5,0,1,0.1,1.5,0.1c0.6,0,1.3,0.1,1.9,0.2l0.5,0.1
	c0.1,0,0.3,0,0.4,0.1l0.2,0.1h0.1c0,0,0.1,0.1,0.1,0.2c0.2,0.6,0.4,1.1,0.5,1.7c0.1,0.6,0.3,1.2,0.4,1.9c0.4,2.5,0.8,5.1,1,7.6
	c0.5,5.1,0.9,10.2,1.2,15.4c0.6,10.2,0.9,20.5,0.9,30.8C264.6,223.5,264.6,228.6,264.3,233.8z"/>
<path class="st2" d="M115.3,82.1c0,0,1.9,18.7,9.1,24.3c7.3,5.6,13.6,12.4,25,12.3s16.8-6.1,21.2-8.7c8.1-5,12.7-14.1,12-23.6
	c-0.7-13.5-1.1-31.7-1.1-31.7s0.9-9-4.4-14.1s-15.4-8.9-26.2-8c-10.8,0.9-26.7,0.5-30.1,9.1s-5.4,23.6-5.4,26L115.3,82.1z"/>
<path class="st3" d="M140.2,87.3c0.1,0,0.2,0,0.3-0.1c1.2-1.7,2.8-2,4.6-1.6c0.4,0.1,0.8,0.3,1.1,0.6c0.8,0.5,1.9,0.7,2.8,0.6
	c1.2-0.2,2.4-0.6,3.5-1.1c1-0.4,2.1-0.5,3.2-0.2c0.7,0.2,1.2,0.6,1.5,1.2c0.1,0.4,0.4,0.7,0.7,0.8c-0.1,1-0.6,1.9-1.5,2.4
	c-0.2,0.2-0.6,0.3-0.7,0.6c-0.4,0.3-0.8,0.2-1.2,0.1c-0.7-0.1-1.3-0.3-2-0.6c-1-0.4-2-0.4-3-0.2c-0.7,0.1-1.4,0.1-2.1-0.1
	c-1-0.1-2.1,0-3.1,0.4c-0.9,0.5-1.9,0.5-2.8,0c0-0.2-0.2-0.3-0.3-0.5C140.6,89.1,140.3,88.2,140.2,87.3z M153.6,87.4
	c-0.8,0-1.6,0.3-2.3,0.7c-0.1,0.1-0.3,0.2-0.2,0.3c0.1,0.1,0.1,0.1,0.2,0.2c0.8,0.1,1.5,0.3,2.3,0.5c0.3,0,0.6,0,0.9-0.2
	c0.3-0.2,0.5-0.5,0.5-0.9c0-0.4-0.4-0.5-0.7-0.6S153.8,87.4,153.6,87.4z M144.6,87.4c-0.7,0-1.2,0.3-1.2,0.7s0.6,0.7,1.2,0.6
	s1-0.1,1.5-0.2c0.1,0,0.4,0,0.4-0.2s-0.1-0.2-0.2-0.3C145.8,87.7,145.2,87.5,144.6,87.4L144.6,87.4z"/>
<path class="st10" d="M158.1,102c-0.2,0.4-0.5,0.8-0.9,1c-1.3,1.1-2.8,1.8-4.4,2.2c-1.5,0.4-3,0.4-4.6,0.2c-2-0.3-4-1-5.8-1.9
	c-0.8-0.4-1.5-0.9-2.2-1.5l1.5-0.2c2.1-0.4,4.3-0.5,6.5-0.3c1.1,0.1,2.2,0.1,3.3-0.1c0.5-0.1,1-0.1,1.5-0.1
	C154.8,101.3,156.5,101.5,158.1,102z"/>
<path class="st10" d="M140,101.6c0.5-0.5,1.1-1,1.7-1.5c1-0.8,2-1.4,3.1-2c0.7-0.3,1.3-0.7,2-1c0.3-0.2,0.7-0.2,1,0
	c0.9,0.6,2.1,0.6,3.1,0c0.8-0.4,1.8-0.2,2.5,0.3c1.5,0.8,2.9,1.7,4.2,2.7c0.5,0.3,0.8,0.8,1,1.3c-0.8,0-1.6-0.1-2.4-0.4
	c-1.3-0.3-2.6-0.4-3.9-0.2c-1.1,0.2-2.3,0.3-3.4,0.2c-2-0.3-4-0.2-5.9,0.2C141.9,101.4,141,101.5,140,101.6z"/>
<path class="st6" d="M140,101.6c0.9-0.1,1.9-0.2,2.8-0.4c2-0.4,4-0.5,5.9-0.2c1.1,0,2.3,0,3.4-0.2c1.3-0.1,2.6,0,3.9,0.2
	c0.8,0.2,1.6,0.4,2.4,0.4c0.1,0.1,0.3,0.1,0.3,0.3s-0.4,0.3-0.6,0.3c-1.6-0.5-3.3-0.7-4.9-0.7c-0.5,0-1,0-1.5,0.1
	c-1.1,0.2-2.2,0.2-3.3,0.1c-2.2-0.2-4.3-0.1-6.5,0.3l-1.5,0.2H140c-0.1,0-0.2,0-0.2-0.2S139.9,101.6,140,101.6z"/>
<path class="st11" d="M149,79.3c-0.4-3.3-0.3-6.6,0.3-9.8C149.6,72.7,149.5,76,149,79.3z"/>
<path class="st6" d="M155.8,90.5c0.2-0.3,0.5-0.4,0.7-0.6c0.9-0.5,1.4-1.4,1.5-2.4c0.2-0.6,0.2-1.2-0.1-1.8
	c-0.2-0.4-0.3-0.8-0.3-1.2c0.9,1.1,1.2,2.5,0.7,3.8C158.1,89.6,157,90.4,155.8,90.5z"/>
<path class="st6" d="M140.2,87.3c0.1,0.9,0.5,1.7,1.1,2.4c0.1,0.2,0.3,0.3,0.3,0.5c-1.1-0.5-1.8-1.5-1.8-2.7
	c-0.1-1.3,0.3-2.6,1.1-3.6c0.1-0.2,0.3-0.2,0.4-0.1c0,0,0,0,0,0C140.7,85,139.9,86,140.2,87.3z"/>
<path class="st11" d="M149.4,83.2c-0.1,0.3-0.3,0.7-0.7,0.6s-0.4-0.2-0.4-0.5c0-0.3,0.3-0.6,0.6-0.6
	C149.2,82.7,149.4,82.9,149.4,83.2C149.4,83.2,149.4,83.2,149.4,83.2z"/>
<path class="st6" d="M153.6,87.4c0.2,0,0.5,0,0.7,0.1s0.7,0.2,0.7,0.6c0,0.4-0.2,0.7-0.5,0.9c-0.3,0.2-0.6,0.3-0.9,0.2
	c-0.8-0.2-1.5-0.4-2.3-0.5c-0.1,0-0.2-0.1-0.2-0.2c-0.1-0.2,0.1-0.3,0.2-0.3C152,87.7,152.8,87.4,153.6,87.4z"/>
<path class="st6" d="M144.6,87.5c0.6,0,1.2,0.2,1.7,0.6c0.1,0.1,0.3,0.2,0.2,0.3s-0.2,0.2-0.4,0.2c-0.5,0.1-1,0.1-1.5,0.2
	s-1.2-0.2-1.2-0.6S143.9,87.4,144.6,87.5z"/>
<path class="st7" d="M156.1,70c1.4-2.2,3.9-3.4,6.5-3.3c4.6,0,6.4,2.3,6.4,2.3c-0.5-0.1-1-0.1-1.5,0c-0.5,0.2-1.6,2.1-5.2,1.9
	S156.8,69.9,156.1,70z"/>
<path class="st7" d="M129.3,68.8c1.6-1.7,3.9-2.5,6.2-2.3c2.4,0.4,4.5,1.7,6,3.6c-2.2,0.3-4.5,0.4-6.8,0.4
	C132.2,70.3,130.2,68.9,129.3,68.8z"/>
<path class="st12" d="M141.6,70.1c-1-1.3-2.3-2.4-3.7-3.1c-1-0.5-2.1-0.8-3.3-0.8c-0.6,0-1.1,0.1-1.6,0.3c-1.5,0.5-3,1.3-4.2,2.3
	c-0.3,0.1-0.6,0.1-0.9,0c0.2,0,0.5-0.1,0.7-0.2c1.5-1,3-1.8,4.7-2.4c0.5-0.1,1-0.2,1.5-0.2c1.1,0.1,2.1,0.3,3.1,0.7
	C139.5,67.3,140.9,68.5,141.6,70.1z"/>
<path class="st12" d="M155.6,70.1l0.2-0.1C155.6,70,155.6,70.1,155.6,70.1z"/>
<path class="st12" d="M169.2,69c-0.4,0.1-0.8,0-1.1-0.2c-1-0.9-2.2-1.5-3.5-1.9c-0.6-0.2-1.2-0.3-1.9-0.2c-0.9,0-1.8,0.2-2.6,0.4
	c-0.7,0.1-1.3,0.4-1.8,0.8c-0.7,0.5-2.1,1.7-2.6,2.1c0.9-1.1,1.9-2,3-2.8c0.6-0.4,1.3-0.7,2-0.8l0,0c1.1-0.2,2.2-0.2,3.3,0l0.4,0.1
	C166.2,66.8,167.9,67.7,169.2,69z"/>
<path class="st13" d="M138,67.5c-0.3,1.5-1.8,2.4-3.2,2.1c-1-0.2-1.9-1-2.1-2.1c0-0.4,0.1-0.7,0.3-1c0.5-0.2,1.1-0.3,1.6-0.3
	c1.1,0,2.3,0.2,3.3,0.8C138,67.2,138,67.3,138,67.5z"/>
<path class="st13" d="M165,67.9c-0.2,1.4-1.6,2.3-2.9,2.1c-1-0.2-1.9-1-2.1-2.1c0-0.3,0.1-0.6,0.2-0.9c0.9-0.2,1.8-0.3,2.6-0.4
	c0.6,0,1.3,0,1.9,0.2C164.9,67.2,165,67.5,165,67.9z"/>
<ellipse class="st12" cx="135.5" cy="67.2" rx="1" ry="0.9"/>
<circle class="st12" cx="162.4" cy="67.5" r="1.2"/>
<ellipse class="st7" cx="136.1" cy="67.9" rx="0.6" ry="0.5"/>
<ellipse class="st7" cx="163.1" cy="68.2" rx="0.6" ry="0.5"/>
<path class="st6" d="M156.9,67.5c1.6-1.7,3.8-2.7,6.2-2.7c1.2,0,2.3,0.2,3.4,0.6c1.1,0.4,2.1,1,2.8,1.9c-0.4-0.4-0.9-0.7-1.4-1
	c-0.5-0.3-1-0.5-1.6-0.6c-0.5-0.2-1.1-0.3-1.6-0.4c-0.3,0-0.6-0.1-0.8-0.1c-0.3,0-0.6,0-0.8,0c-1.7,0-3.3,0.5-4.8,1.3
	C157.8,66.8,157.4,67.1,156.9,67.5z"/>
<path class="st6" d="M127.9,67.2c0.9-0.8,1.9-1.5,3-2c0.6-0.2,1.1-0.4,1.7-0.6c0.6-0.1,1.2-0.2,1.8-0.2c1.2,0,2.5,0.3,3.6,0.9
	c1.1,0.6,2,1.4,2.6,2.5c-0.4-0.5-0.8-0.9-1.3-1.2c-0.5-0.4-1-0.7-1.5-0.9c-1.1-0.5-2.2-0.8-3.4-0.7c-1.2,0-2.3,0.3-3.4,0.7
	c-0.6,0.2-1.1,0.5-1.6,0.7C128.8,66.5,128.3,66.8,127.9,67.2z"/>
<path class="st3" d="M152.4,71.1c-1-1.1-1.1-2.7-0.4-3.9c1.3-2.3,0.6-3.8,2-4.8s5.6-1.2,5.8-0.6s-1.5,2.1-4.1,4.5
	S153.2,71,152.4,71.1z"/>
<path class="st3" d="M142.2,61.5c0,0,2.9,2.1,3.2,4.2s0.9,5.2-0.5,5.1s-2.8-3.3-3.1-3.9s-3.4-5.3-4.2-5.7S139.7,59.9,142.2,61.5z"/>
<path class="st12" d="M154,62.6c0,0-0.5-2.9,1.6-3.5s9.9-3.2,13.8-1.4s5.9,4.4,6.6,8.3c0,0,0.1-0.6-2.8-2.9s-8.3-3.1-11.9-2.1
	S154.6,63.4,154,62.6z"/>
<path class="st12" d="M143.9,61.1c0,0,0.1-1.5-2.8-2.1s-10.9-1.6-13.2-0.5s-6.4,5.2-5.4,6.4c1.3-1.2,1.8-2,5.7-3.4
	c5-0.5,10.6-0.6,12.5,0.2C141.7,62,143,61.9,143.9,61.1z"/>
<path class="st2" d="M180.2,66.8c0.7-1.4,2.4-2,3.8-1.3c0,0,0,0,0,0c2.5,1.2,2.4,4.9,2.2,5.9c-0.7,3.1-1,6.3-0.8,9.5
	c0.4,3.2,3.1,8,0.9,8.8s-3.3,1.4-4.8-0.6S180.2,66.8,180.2,66.8z"/>
<path class="st6" d="M183.2,84.1c-0.4-1.8-0.7-3.6-0.9-5.4c-0.1-0.9-0.1-1.8-0.1-2.7v-0.7c0-0.2,0-0.5,0.1-0.7
	c0.1-0.4,0.2-0.9,0.2-1.3c0-0.4,0.1-0.9,0.1-1.4c0-0.2,0.1-0.4,0.1-0.7c0-0.1,0.1-0.2,0.1-0.4c0-0.1,0.1-0.1,0.1-0.2l0.1-0.1
	c0.2-0.2,0.4-0.3,0.6-0.4c0.2-0.2,0.5-0.2,0.8-0.3c0.2,0,0.4,0.1,0.5,0.2c0.1,0.1,0.1,0.3,0.2,0.4c0,0.2,0,0.5,0,0.7
	c0,0.9-0.3,1.9-0.7,2.7c-0.1,0.1-0.1,0.2-0.2,0.3c0,0-0.1,0.1-0.1,0.1l-0.1,0.1c-0.1,0.2-0.3,0.3-0.4,0.5c-0.2,0.4-0.3,0.8-0.5,1.3
	l0,0c0-0.5,0.1-0.9,0.3-1.3c0.1-0.2,0.2-0.4,0.3-0.6c0.1-0.1,0.1-0.2,0.2-0.3c0.1-0.1,0.1-0.2,0.2-0.3c0.2-0.4,0.3-0.8,0.4-1.2
	c0.1-0.4,0.1-0.9,0.2-1.3c0-0.2,0-0.4,0-0.6c0-0.1,0-0.1-0.1-0.2c0,0-0.1,0-0.1-0.1c-0.2,0-0.4,0.1-0.5,0.2
	c-0.2,0.1-0.4,0.2-0.5,0.4c0,0-0.1,0.1-0.1,0.1c0,0,0,0-0.1,0.1s-0.1,0.2-0.1,0.3s-0.1,0.4-0.1,0.7l-0.2,1.3
	c-0.1,0.5-0.2,0.9-0.3,1.3c-0.1,0.2-0.1,0.4-0.1,0.6c0,0.2,0,0.4,0,0.7c0.1,0.9,0.2,1.8,0.4,2.7C182.9,80.4,183.1,82.2,183.2,84.1
	L183.2,84.1z"/>
<path class="st2" d="M117.4,66.8c-0.7-1.4-2.4-2-3.8-1.3c0,0,0,0,0,0c-2.6,1.2-2.4,4.9-2.2,5.9c0.7,3.1,1,6.3,0.8,9.5
	c-0.4,3.2-3.1,8-0.9,8.8s3.3,1.4,4.8-0.6S117.4,66.8,117.4,66.8z"/>
<path class="st6" d="M114.8,83.2c0.4-1.8,0.7-3.6,0.9-5.4c0.1-0.9,0.1-1.8,0.2-2.7c0-0.2,0-0.4,0-0.7c0-0.2,0-0.5-0.1-0.7
	c-0.1-0.4-0.2-0.9-0.2-1.3c0-0.5-0.1-0.9-0.1-1.4c0-0.2-0.1-0.4-0.1-0.7c0-0.1-0.1-0.2-0.1-0.4c0-0.1-0.1-0.1-0.1-0.2
	c0,0-0.1-0.1-0.1-0.1c-0.2-0.2-0.4-0.3-0.6-0.4c-0.2-0.1-0.5-0.2-0.7-0.3c-0.2,0-0.4,0.1-0.5,0.2c-0.1,0.1-0.2,0.3-0.2,0.4
	c0,0.2,0,0.5,0,0.7c0,0.9,0.3,1.9,0.7,2.7c0.1,0.1,0.1,0.2,0.2,0.3c0,0,0.1,0.1,0.1,0.1l0.1,0.1c0.1,0.2,0.3,0.3,0.3,0.5
	c0.2,0.4,0.3,0.8,0.5,1.3l0,0c0-0.5-0.1-0.9-0.3-1.3c-0.1-0.2-0.2-0.4-0.3-0.6l-0.2-0.3c-0.1-0.1-0.1-0.2-0.2-0.3
	c-0.2-0.4-0.3-0.8-0.4-1.2c-0.1-0.4-0.1-0.9-0.2-1.3c0-0.2,0-0.4,0-0.6c0-0.1,0-0.1,0.1-0.2c0,0,0.1,0,0.1-0.1
	c0.2,0,0.4,0.1,0.5,0.2c0.2,0.1,0.4,0.2,0.5,0.4l0.1,0.1c0,0,0,0,0.1,0.1c0,0.1,0.1,0.2,0.1,0.3c0.1,0.2,0.1,0.4,0.1,0.7l0.2,1.3
	c0.1,0.5,0.2,0.9,0.3,1.3c0.1,0.2,0.1,0.4,0.1,0.6c0,0.2,0,0.4,0,0.7c-0.1,0.9-0.2,1.8-0.4,2.7C115.1,79.6,114.9,81.4,114.8,83.2
	L114.8,83.2z"/>
<path class="st14" d="M117.8,65.9c-4-6.8,16.6-6,20.3-4.9c2.8,0.5,4.8,2.3,7.1,3.5c9.7,0.3,6.7,0.7,15-3c5.9-1.7,12-0.6,17.7,1.1
	c0.6,0.3,1.1,0.6,1.8,0.7c2,0.4,2.2,2.3,0.6,3.3c-0.2,0.1-0.5,0.2-0.5,0.5c-3.2,3.1-0.9,9.5-5.4,12.4c-9.1,7.4-24.8-0.9-21.9-12.3
	c-1.1-2.2-7.5-1.7-6.1,1.5c2.3,10.6-14.6,16.5-21.5,10.4C119.2,76.3,121.8,65.9,117.8,65.9z M169.2,62.7c-10.6-2.4-21,5.9-11.2,15.4
	C172.4,89.4,185,65.6,169.2,62.7z M140.2,63.3c-4.8-2.2-13.2-3.2-16.6,2c-2.6,4.4-0.4,12.4,4.9,14.2
	C138.3,84.2,151.9,69.3,140.2,63.3L140.2,63.3z"/>
<path class="st15" d="M165.4,39c-2.1,0.4-4.3,0.7-6.4,0.7c-4.6,0.2-8.8,0.4-10.8,0s-1.5-2.3-9.9-1.5S126.1,39,124,43.3
	s-3.1,4.3-3.1,7.8s1.2,4.6-0.8,7.1s-3.4,10-3.2,12.9c0.1,1.3,0.1,2.7,0,4c0,0-0.6-5-2.3-7.8s-2.6-3.2-2.3-6.7s-2.1-8.7,2.8-18.2
	s5.2-13.2,14.9-16.8s16.7-6.9,24.5-3.7s8.3,5.3,9.2,6.7s1.8-0.4,5.1-0.6s9.3,1.7,13.1,7.3s3.8,10.7,4,14s0.4,10.2-0.6,12.2
	c-0.8,1.8-1.4,3.7-1.9,5.6c-0.5,1.5-1.1,2.4-1,3.8s-1.4-0.4-1.4-3.6s-1.1-4.2-1.2-6.8s-3.8-4.3-3.3-7.1s-3.5-9.4-4.4-11
	S165.4,39,165.4,39z"/>
<path class="st16" d="M264.6,218.4c0,5.1-0.1,10.3-0.3,15.4c-0.1,2.6-0.3,5.1-0.5,7.7s-0.5,5.1-1,7.6c-0.2,1.2-0.6,2.5-1,3.6
	c-0.2,0.6-0.5,1.1-0.8,1.6c-0.1,0.2-0.3,0.3-0.5,0.4c-0.3,0.1-0.6,0.2-0.8,0.2c-1.2,0.2-2.5,0.3-3.8,0.4s-2.6,0.2-3.8,0.3
	c-5.1,0.3-10.2,0.5-15.4,0.7c-10.3,0.4-20.5,0.6-30.8,0.8s-20.6,0.3-30.8,0.4s-20.6,0.1-30.8,0c-5.1,0-10.3-0.1-15.4-0.3
	c-2.6-0.1-5.1-0.2-7.7-0.3s-5.1-0.3-7.6-0.6c-0.6-0.1-1.2-0.2-1.8-0.3c-0.3,0-0.6-0.1-0.9-0.2l-0.3-0.1
	c30.9,2.4,135.2-2.7,135.2-2.7s7.3-0.8,12.8-10.8c4.8-8.9-1.2-68.2-2.6-81.8c0.5,0,1,0.1,1.5,0.1c0.6,0,1.3,0.1,1.9,0.2l0.5,0.1
	c0.1,0,0.3,0,0.4,0.1l0.2,0.1h0.1c0,0,0.1,0.1,0.1,0.2c0.2,0.6,0.4,1.1,0.5,1.7c0.1,0.6,0.3,1.2,0.4,1.9c0.4,2.5,0.8,5.1,1,7.6
	c0.5,5.1,0.9,10.2,1.2,15.4C264.3,197.8,264.6,208.1,264.6,218.4z"/>
<g>
	<path class="st17" d="M363.4,114.9l-8,19.1h-2l8-19.1H363.4z"/>
	<path class="st17" d="M376.6,114.9l-8,19.1h-2l8-19.1H376.6z"/>
	<path class="st17" d="M404.7,131.5h-2.3l-1.1-3.3H395l-1.1,3.3h-2.2l5.1-15.3h2.9L404.7,131.5z M400.8,126.3l-2.6-8.2l-2.6,8.2
		H400.8z"/>
	<path class="st17" d="M410.7,116.6h-3.5v-1.7h5.5v14.9h3.5v1.7h-9.4v-1.7h3.9L410.7,116.6z"/>
	<path class="st17" d="M428.4,121.4c0.2,0.3,0.4,0.6,0.5,1c0.1,0.4,0.2,0.8,0.2,1.2c0,0.6-0.1,1.1-0.3,1.7c-0.2,0.5-0.5,0.9-0.9,1.3
		c-0.4,0.4-0.9,0.7-1.5,0.8c-0.6,0.2-1.2,0.3-1.9,0.3c-0.5,0-0.9-0.1-1.4-0.2c-0.3-0.1-0.7-0.2-1-0.4c-0.1,0.2-0.3,0.4-0.4,0.6
		c-0.1,0.2-0.2,0.4-0.1,0.6c0,0.3,0.2,0.6,0.4,0.7c0.3,0.2,0.7,0.3,1.1,0.3l3.1,0.1c0.6,0,1.1,0.1,1.6,0.2c0.5,0.1,0.9,0.3,1.3,0.6
		c0.3,0.2,0.6,0.6,0.8,0.9c0.2,0.4,0.3,0.8,0.3,1.3c0,0.5-0.1,1-0.3,1.5c-0.2,0.5-0.6,0.9-1,1.2c-0.6,0.4-1.2,0.7-1.9,0.8
		c-0.8,0.2-1.7,0.3-2.6,0.3c-0.8,0-1.6-0.1-2.4-0.2c-0.6-0.1-1.1-0.3-1.6-0.6c-0.4-0.2-0.7-0.6-0.9-1c-0.2-0.4-0.3-0.8-0.3-1.2
		c0-0.5,0.1-1,0.4-1.5c0.3-0.5,0.7-0.9,1.2-1.2c-0.2-0.1-0.4-0.2-0.5-0.4c-0.3-0.3-0.5-0.6-0.6-1c-0.1-0.2-0.1-0.4-0.1-0.6
		c0-0.5,0.1-1,0.4-1.4c0.2-0.4,0.5-0.8,0.9-1.2c-0.1-0.2-0.3-0.3-0.4-0.5c-0.1-0.2-0.2-0.4-0.3-0.6c-0.1-0.2-0.2-0.4-0.2-0.6
		c0-0.3-0.1-0.5-0.1-0.8c0-0.6,0.1-1.1,0.3-1.7c0.2-0.5,0.5-0.9,0.9-1.3c0.4-0.4,0.9-0.7,1.5-0.8c0.6-0.2,1.2-0.3,1.9-0.3
		c0.3,0,0.6,0,0.8,0.1c0.2,0,0.5,0.1,0.7,0.2h4.3v1.7L428.4,121.4z M421.3,133.2c0,0.5,0.3,1,0.9,1.2c1.3,0.4,2.7,0.5,4,0.2
		c0.4-0.1,0.7-0.2,1.1-0.5c0.2-0.2,0.4-0.4,0.6-0.7c0.1-0.2,0.2-0.5,0.2-0.8c0-0.4-0.2-0.8-0.6-1.1c-0.6-0.3-1.2-0.4-1.8-0.4
		l-3.1-0.1c-0.2,0.1-0.4,0.3-0.6,0.5c-0.2,0.1-0.3,0.3-0.4,0.5c-0.1,0.2-0.2,0.3-0.2,0.5C421.3,132.9,421.3,133,421.3,133.2z
		 M421.9,123.6c0,0.3,0.1,0.7,0.2,1c0.1,0.3,0.3,0.6,0.5,0.8c0.2,0.2,0.5,0.4,0.8,0.5c0.3,0.1,0.7,0.2,1,0.2c0.4,0,0.7-0.1,1.1-0.2
		c0.3-0.1,0.6-0.3,0.8-0.6c0.2-0.2,0.4-0.5,0.5-0.8c0.1-0.3,0.2-0.7,0.2-1c0-0.3-0.1-0.7-0.2-1c-0.2-0.6-0.7-1.1-1.3-1.3
		c-0.3-0.1-0.7-0.2-1-0.2c-0.4,0-0.7,0.1-1.1,0.2c-0.3,0.1-0.6,0.3-0.8,0.6c-0.2,0.2-0.4,0.5-0.5,0.8
		C422,122.9,421.9,123.2,421.9,123.6L421.9,123.6z"/>
	<path class="st17" d="M443.3,125.5c0,0.9-0.1,1.7-0.4,2.5c-0.2,0.7-0.6,1.4-1.1,2c-0.5,0.5-1.1,1-1.8,1.3c-0.8,0.3-1.6,0.5-2.4,0.4
		c-0.8,0-1.5-0.1-2.3-0.4c-0.6-0.2-1.2-0.6-1.7-1.2c-0.5-0.5-0.9-1.2-1.1-1.9c-0.3-0.8-0.4-1.7-0.4-2.6c0-0.8,0.1-1.7,0.4-2.5
		c0.2-0.7,0.6-1.4,1.1-2c0.5-0.5,1.1-1,1.8-1.3c0.8-0.3,1.6-0.5,2.4-0.5c0.8,0,1.5,0.1,2.3,0.4c0.6,0.2,1.2,0.6,1.7,1.2
		c0.5,0.5,0.9,1.2,1.1,1.8C443.3,123.8,443.4,124.7,443.3,125.5z M441.2,125.6c0-0.6-0.1-1.3-0.2-1.9c-0.1-0.5-0.4-1-0.7-1.4
		c-0.3-0.4-0.7-0.6-1.1-0.8c-0.4-0.2-0.9-0.3-1.4-0.3c-1-0.1-2,0.4-2.6,1.3c-0.3,0.4-0.5,0.9-0.6,1.4c-0.1,0.5-0.2,1.1-0.2,1.7
		c0,0.6,0.1,1.3,0.2,1.9c0.1,0.5,0.4,1,0.7,1.4c0.3,0.4,0.7,0.6,1.1,0.8c0.5,0.2,0.9,0.3,1.4,0.3c0.5,0,1.1-0.1,1.6-0.4
		c0.4-0.2,0.8-0.6,1.1-1c0.3-0.4,0.5-0.9,0.6-1.4C441.2,126.7,441.2,126.2,441.2,125.6z"/>
	<path class="st17" d="M446.8,119.7h1.9l0,2.2c0.6-0.7,1.3-1.3,2.1-1.8c0.6-0.4,1.3-0.6,2-0.6c1.1-0.1,2.1,0.4,2.8,1.2
		c0.7,1,1,2.3,0.9,3.5h-2.1c0.1-0.8-0.1-1.6-0.5-2.2c-0.3-0.5-0.9-0.7-1.4-0.7c-0.3,0-0.6,0.1-0.8,0.2c-0.3,0.1-0.6,0.3-0.9,0.5
		c-0.3,0.2-0.6,0.5-0.9,0.8c-0.4,0.4-0.7,0.8-1.1,1.2v7.6h-2.1V119.7z"/>
	<path class="st17" d="M463.5,121.4H460v-1.7h5.5v10.1h3.5v1.7h-9.4v-1.7h3.9L463.5,121.4z M464.2,114.8c0.2,0,0.4,0,0.6,0.1
		c0.2,0.1,0.4,0.2,0.5,0.3c0.1,0.1,0.3,0.3,0.3,0.5c0.2,0.4,0.2,0.9,0,1.2c-0.2,0.4-0.5,0.7-0.9,0.9c-0.4,0.2-0.9,0.2-1.3,0
		c-0.4-0.2-0.7-0.5-0.9-0.9c-0.2-0.4-0.2-0.9,0-1.2c0.1-0.2,0.2-0.4,0.3-0.5c0.1-0.1,0.3-0.3,0.5-0.3
		C463.8,114.8,464,114.8,464.2,114.8z"/>
	<path class="st17" d="M482.2,131.3c-0.5,0.1-0.9,0.2-1.4,0.2c-0.5,0.1-1,0.1-1.5,0.1c-1.2,0.1-2.4-0.3-3.3-1
		c-0.8-0.8-1.2-1.9-1.1-3.1v-6.1h-3.3v-1.7h3.3v-3.2l2-0.5v3.8h5.3v1.7h-5.3v6c-0.1,0.7,0.2,1.4,0.7,1.9c0.6,0.5,1.3,0.7,2,0.6
		c0.4,0,0.8,0,1.2-0.1c0.5-0.1,0.9-0.2,1.4-0.3L482.2,131.3z"/>
	<path class="st17" d="M495.3,131.5h-2V124c0-0.7-0.1-1.4-0.5-2c-0.3-0.5-0.9-0.7-1.5-0.7c-0.3,0-0.5,0-0.8,0.1
		c-0.3,0.1-0.5,0.2-0.7,0.4c-0.3,0.2-0.6,0.5-0.9,0.8c-0.3,0.3-0.6,0.7-1,1.2v7.8h-2v-16.6h2v4.8l-0.1,1.8c0.3-0.4,0.6-0.7,0.9-1
		c0.3-0.2,0.6-0.5,0.9-0.6c0.3-0.2,0.6-0.3,0.9-0.3c0.3-0.1,0.7-0.1,1-0.1c1-0.1,2,0.3,2.7,1.1c0.7,0.9,1.1,2.1,1,3.2L495.3,131.5z"
		/>
	<path class="st17" d="M507.5,131.5v-8.5c0-0.3,0-0.6,0-0.9c0-0.2-0.1-0.4-0.1-0.5c0-0.1-0.1-0.2-0.2-0.3c-0.1-0.1-0.2-0.1-0.3-0.1
		c-0.2,0-0.3,0-0.4,0.1c-0.2,0.1-0.3,0.3-0.4,0.4c-0.2,0.3-0.4,0.5-0.5,0.8l-0.6,1.3v7.6h-1.9v-8.2c0-0.4,0-0.8,0-1.1
		c0-0.2-0.1-0.4-0.1-0.6c0-0.1-0.1-0.2-0.2-0.3c-0.1-0.1-0.2-0.1-0.3-0.1c-0.1,0-0.3,0-0.4,0.1c-0.2,0.1-0.3,0.3-0.4,0.4
		c-0.2,0.3-0.4,0.5-0.5,0.8c-0.2,0.3-0.4,0.8-0.7,1.3v7.6h-1.9v-11.8h1.6l0.1,2.2c0.2-0.4,0.4-0.8,0.6-1.1c0.2-0.3,0.4-0.5,0.6-0.8
		c0.2-0.2,0.4-0.3,0.6-0.4c0.2-0.1,0.5-0.1,0.8-0.1c0.5,0,1.1,0.2,1.4,0.6c0.4,0.6,0.5,1.2,0.5,1.9c0.2-0.4,0.4-0.8,0.5-1.1
		c0.2-0.3,0.4-0.6,0.6-0.8c0.2-0.2,0.4-0.4,0.7-0.5c0.3-0.1,0.6-0.2,0.9-0.2c1.5,0,2.2,1.1,2.2,3.4v8.6L507.5,131.5z"/>
	<path class="st17" d="M535.7,125.5c0,0.9-0.1,1.7-0.4,2.5c-0.2,0.7-0.6,1.4-1.1,2c-0.5,0.5-1.1,1-1.8,1.3c-0.8,0.3-1.6,0.5-2.4,0.4
		c-0.8,0-1.5-0.1-2.3-0.4c-0.6-0.2-1.2-0.6-1.7-1.2c-0.5-0.6-0.9-1.2-1.1-1.9c-0.3-0.8-0.4-1.7-0.4-2.6c0-0.8,0.1-1.7,0.4-2.5
		c0.2-0.7,0.6-1.4,1.1-2c0.5-0.5,1.1-1,1.8-1.3c0.7-0.3,1.6-0.5,2.4-0.5c0.8,0,1.5,0.1,2.3,0.4c0.6,0.2,1.2,0.6,1.7,1.2
		c0.5,0.5,0.9,1.2,1.1,1.9C535.6,123.8,535.7,124.7,535.7,125.5z M533.6,125.6c0-0.6-0.1-1.3-0.2-1.9c-0.1-0.5-0.4-1-0.7-1.4
		c-0.3-0.4-0.7-0.6-1.1-0.8c-0.4-0.2-0.9-0.3-1.4-0.3c-0.5,0-1.1,0.1-1.6,0.4c-0.4,0.2-0.8,0.6-1.1,1c-0.3,0.4-0.5,0.9-0.6,1.4
		c-0.1,0.5-0.2,1.1-0.2,1.7c0,0.6,0.1,1.3,0.2,1.9c0.1,0.5,0.4,1,0.7,1.4c0.3,0.4,0.7,0.6,1.1,0.8c0.5,0.2,0.9,0.3,1.4,0.3
		c0.5,0,1.1-0.1,1.6-0.4c0.4-0.2,0.8-0.6,1.1-1c0.3-0.4,0.5-0.9,0.6-1.4C533.6,126.7,533.6,126.2,533.6,125.6z"/>
	<path class="st17" d="M549.1,116.8c-0.9-0.2-1.8-0.3-2.8-0.3c-1.8,0-2.8,1-2.8,2.9v2.1h5.2v1.7h-5.2v8.3h-2.1v-8.3h-3.8v-1.7h3.8
		v-2c0-3.1,1.6-4.7,4.9-4.7c0.9,0,1.8,0.1,2.7,0.3V116.8z"/>
	<path class="st17" d="M574.9,127.4c0,0.7-0.1,1.3-0.5,1.9c-0.3,0.5-0.7,1-1.2,1.4c-0.6,0.4-1.2,0.7-1.9,0.8
		c-0.8,0.2-1.6,0.3-2.5,0.3c-0.4,0-0.8,0-1.2,0s-0.8-0.1-1.2-0.1s-0.7-0.1-1-0.2c-0.3-0.1-0.6-0.1-0.9-0.2v-2c0.6,0.2,1.3,0.4,2,0.5
		c0.8,0.1,1.7,0.2,2.5,0.2c0.6,0,1.2,0,1.7-0.2c0.4-0.1,0.8-0.2,1.2-0.5c0.3-0.2,0.5-0.5,0.7-0.8c0.1-0.3,0.2-0.7,0.2-1
		c0-0.4-0.1-0.8-0.3-1.1c-0.3-0.3-0.6-0.6-0.9-0.8c-0.4-0.2-0.8-0.5-1.3-0.6l-1.5-0.6c-0.5-0.2-1-0.4-1.5-0.7
		c-0.5-0.2-0.9-0.5-1.3-0.8c-0.4-0.3-0.7-0.7-0.9-1.2c-0.2-0.5-0.4-1-0.3-1.6c0-0.5,0.1-1.1,0.3-1.5c0.2-0.5,0.6-1,1-1.4
		c0.5-0.4,1.1-0.8,1.8-1c0.8-0.3,1.7-0.4,2.6-0.4h0.8c0.3,0,0.6,0.1,0.9,0.1c0.3,0,0.6,0.1,0.9,0.2c0.3,0.1,0.6,0.1,0.8,0.2v1.9
		c-0.6-0.2-1.2-0.3-1.8-0.4c-0.6-0.1-1.2-0.1-1.8-0.1c-0.9-0.1-1.8,0.1-2.6,0.6c-0.5,0.3-0.9,1-0.8,1.6c0,0.4,0.1,0.8,0.3,1.1
		c0.3,0.3,0.6,0.6,0.9,0.8c0.4,0.2,0.8,0.5,1.3,0.6l1.5,0.6c0.5,0.2,1,0.4,1.5,0.7c0.5,0.2,0.9,0.5,1.3,0.9c0.4,0.3,0.7,0.7,0.9,1.2
		C574.8,126.3,574.9,126.8,574.9,127.4z"/>
	<path class="st17" d="M587.7,131.5h-1.8l-0.1-1.9c-0.3,0.4-0.6,0.7-1,1c-0.3,0.3-0.6,0.5-0.9,0.6c-0.3,0.2-0.6,0.3-0.9,0.3
		c-0.3,0.1-0.7,0.1-1,0.1c-1,0.1-2-0.3-2.7-1.1c-0.7-0.9-1-2.1-0.9-3.2v-7.7h2v7.5c0,1.8,0.7,2.7,2,2.7c0.3,0,0.5,0,0.7-0.1
		c0.3-0.1,0.5-0.2,0.8-0.4c0.3-0.2,0.6-0.5,0.8-0.7c0.3-0.3,0.6-0.7,1-1.2v-7.8h2L587.7,131.5z"/>
	<path class="st17" d="M600.6,131.1c-0.5,0.2-1.1,0.3-1.6,0.4c-0.6,0.1-1.2,0.2-1.7,0.1c-1.6,0.1-3.1-0.4-4.3-1.5
		c-1.1-1.2-1.6-2.8-1.5-4.4c0-0.9,0.1-1.7,0.4-2.5c0.3-0.7,0.7-1.4,1.2-2c0.5-0.5,1.2-1,1.9-1.2c0.8-0.3,1.6-0.4,2.4-0.4
		c0.6,0,1.1,0,1.7,0.1c0.5,0.1,1,0.2,1.5,0.4v2c-0.5-0.3-1-0.5-1.5-0.6c-0.5-0.1-1.1-0.2-1.6-0.2c-0.5,0-1,0.1-1.5,0.3
		c-0.5,0.2-0.9,0.5-1.2,0.9c-0.4,0.4-0.7,0.9-0.8,1.4c-0.2,0.6-0.3,1.2-0.3,1.8c-0.1,1.2,0.3,2.3,1,3.2c0.8,0.7,1.8,1.1,2.9,1.1
		c0.5,0,1.1-0.1,1.6-0.2c0.5-0.1,1-0.3,1.5-0.6L600.6,131.1z"/>
	<path class="st17" d="M613.8,131.1c-0.5,0.2-1.1,0.4-1.6,0.4c-0.6,0.1-1.2,0.2-1.7,0.1c-1.6,0.1-3.1-0.4-4.3-1.5
		c-1.1-1.2-1.6-2.8-1.5-4.4c0-0.9,0.1-1.7,0.4-2.5c0.5-1.5,1.6-2.6,3.1-3.2c0.8-0.3,1.6-0.4,2.4-0.4c0.6,0,1.1,0,1.7,0.1
		c0.5,0.1,1,0.2,1.5,0.4v2c-0.5-0.3-1-0.5-1.6-0.6c-0.5-0.1-1.1-0.2-1.6-0.2c-0.5,0-1,0.1-1.5,0.3c-0.5,0.2-0.9,0.5-1.2,0.9
		c-0.4,0.4-0.6,0.9-0.8,1.4c-0.2,0.6-0.3,1.2-0.3,1.8c-0.1,1.2,0.3,2.3,1,3.2c0.8,0.7,1.8,1.1,2.9,1.1c0.5,0,1.1-0.1,1.6-0.2
		c0.5-0.1,1-0.3,1.5-0.6L613.8,131.1z"/>
	<path class="st17" d="M627.8,125c0,0.3,0,0.5,0,0.7s0,0.4,0,0.6h-8.3c-0.1,1,0.3,2,1,2.8c0.8,0.7,1.8,1.1,2.9,1c0.3,0,0.7,0,1,0
		s0.7-0.1,1-0.1s0.6-0.1,0.9-0.2c0.3,0,0.6-0.1,0.8-0.2v1.7c-0.6,0.2-1.3,0.3-1.9,0.4c-0.7,0.1-1.4,0.1-2.2,0.1
		c-0.9,0-1.8-0.1-2.6-0.4c-0.7-0.3-1.3-0.7-1.8-1.3c-0.5-0.6-0.8-1.2-1-1.9c-0.2-0.8-0.3-1.7-0.3-2.6c0-0.8,0.1-1.6,0.3-2.3
		c0.2-0.7,0.6-1.4,1-1.9c1-1.2,2.4-1.9,3.9-1.8c0.7,0,1.5,0.1,2.2,0.4c0.6,0.2,1.2,0.6,1.6,1.1c0.5,0.5,0.8,1.1,1,1.7
		C627.7,123.5,627.8,124.2,627.8,125z M625.7,124.7c0-0.5,0-1-0.2-1.4c-0.1-0.4-0.3-0.8-0.6-1.1c-0.3-0.3-0.6-0.6-1-0.7
		c-0.4-0.2-0.9-0.3-1.4-0.3c-0.8,0-1.6,0.3-2.2,1c-0.3,0.3-0.5,0.7-0.7,1.1c-0.2,0.5-0.3,0.9-0.3,1.4L625.7,124.7z"/>
	<path class="st17" d="M640.3,128.3c0,0.4-0.1,0.8-0.2,1.1c-0.1,0.3-0.3,0.6-0.6,0.9c-0.3,0.3-0.5,0.5-0.8,0.7
		c-0.3,0.2-0.7,0.3-1,0.4c-0.4,0.1-0.7,0.2-1.1,0.3c-0.4,0.1-0.8,0.1-1.1,0.1c-0.7,0-1.5,0-2.2-0.1c-0.7-0.1-1.3-0.2-2-0.3v-1.9
		c0.7,0.2,1.4,0.3,2,0.4c0.7,0.1,1.3,0.1,2,0.1c0.7,0,1.5-0.1,2.2-0.4c0.4-0.2,0.7-0.6,0.7-1.1c0-0.2,0-0.4-0.1-0.6
		c-0.1-0.2-0.2-0.4-0.4-0.5c-0.3-0.2-0.6-0.4-0.9-0.5c-0.4-0.2-1-0.3-1.7-0.6c-0.5-0.1-1-0.3-1.5-0.5c-0.4-0.2-0.8-0.4-1.2-0.7
		c-0.3-0.3-0.6-0.6-0.8-1c-0.2-0.4-0.3-0.9-0.3-1.3c0-0.4,0.1-0.7,0.2-1.1c0.2-0.4,0.4-0.8,0.8-1.1c0.4-0.4,0.9-0.7,1.5-0.8
		c0.8-0.2,1.6-0.4,2.3-0.3c0.5,0,1,0,1.5,0.1c0.6,0.1,1.2,0.1,1.8,0.3v1.8c-0.6-0.1-1.2-0.3-1.8-0.3c-0.5-0.1-1-0.1-1.5-0.1
		c-0.4,0-0.9,0-1.3,0.1c-0.3,0.1-0.6,0.2-0.8,0.3c-0.2,0.1-0.4,0.3-0.5,0.5c-0.1,0.2-0.1,0.4-0.1,0.6c0,0.2,0,0.4,0.1,0.6
		c0.1,0.2,0.3,0.4,0.5,0.5c0.3,0.2,0.6,0.4,0.9,0.5c0.4,0.2,0.9,0.3,1.6,0.5c0.6,0.2,1.2,0.4,1.8,0.6c0.4,0.2,0.8,0.4,1.2,0.7
		c0.3,0.3,0.5,0.6,0.6,0.9C640.3,127.5,640.3,127.9,640.3,128.3z"/>
	<path class="st17" d="M653.5,128.3c0,0.7-0.3,1.5-0.8,2c-0.2,0.3-0.5,0.5-0.8,0.7c-0.3,0.2-0.7,0.3-1,0.4c-0.4,0.1-0.7,0.2-1.1,0.3
		c-0.4,0.1-0.7,0.1-1.1,0.1c-0.7,0-1.5,0-2.2-0.1c-0.7-0.1-1.3-0.2-2-0.3v-1.9c0.7,0.2,1.3,0.3,2,0.4c0.7,0.1,1.3,0.1,2,0.1
		c0.7,0,1.5-0.1,2.2-0.4c0.4-0.2,0.7-0.7,0.7-1.1c0-0.2,0-0.4-0.1-0.6c-0.1-0.2-0.2-0.4-0.4-0.5c-0.3-0.2-0.6-0.4-0.9-0.5
		c-0.4-0.2-1-0.3-1.7-0.6c-0.5-0.1-1-0.3-1.5-0.5c-0.4-0.2-0.8-0.4-1.2-0.7c-0.3-0.3-0.6-0.6-0.8-1c-0.2-0.4-0.3-0.9-0.3-1.3
		c0-0.4,0.1-0.7,0.2-1.1c0.2-0.4,0.4-0.8,0.8-1.1c0.4-0.4,0.9-0.7,1.5-0.8c0.8-0.2,1.5-0.4,2.3-0.3c0.5,0,1,0,1.5,0.1
		c0.6,0.1,1.2,0.1,1.8,0.3v1.8c-0.6-0.1-1.2-0.3-1.8-0.3c-0.5-0.1-1-0.1-1.5-0.1c-0.4,0-0.9,0-1.3,0.1c-0.3,0.1-0.6,0.2-0.8,0.3
		c-0.2,0.1-0.4,0.3-0.5,0.5c-0.1,0.2-0.1,0.4-0.1,0.6c0,0.2,0,0.4,0.1,0.6c0.1,0.2,0.3,0.4,0.5,0.5c0.3,0.2,0.6,0.4,0.9,0.5
		c0.4,0.2,0.9,0.3,1.6,0.5c0.6,0.2,1.2,0.4,1.8,0.6c0.4,0.2,0.8,0.4,1.2,0.7c0.3,0.3,0.5,0.6,0.6,0.9
		C653.4,127.5,653.5,127.9,653.5,128.3z"/>
	<path class="st18" d="M357.9,150.2h-3.5v-1.7h5.6v10.1h3.5v1.7h-9.4v-1.7h3.9V150.2z M358.6,143.6c0.2,0,0.4,0,0.6,0.1
		c0.2,0.1,0.4,0.2,0.5,0.3c0.1,0.1,0.3,0.3,0.3,0.5c0.2,0.4,0.2,0.8,0,1.2c-0.1,0.2-0.2,0.4-0.3,0.5c-0.1,0.1-0.3,0.3-0.5,0.3
		c-0.4,0.2-0.9,0.2-1.3,0c-0.2-0.1-0.4-0.2-0.5-0.3c-0.1-0.2-0.3-0.3-0.3-0.5c-0.2-0.4-0.2-0.9,0-1.2c0.1-0.2,0.2-0.4,0.3-0.5
		c0.1-0.1,0.3-0.3,0.5-0.3C358.2,143.7,358.4,143.6,358.6,143.6z"/>
	<path class="st18" d="M377.6,145.6c-0.9-0.2-1.8-0.3-2.8-0.3c-1.8,0-2.8,1-2.8,2.9v2.1h5.2v1.7H372v8.3h-2V152h-3.8v-1.7h3.8v-2
		c0-3.1,1.6-4.7,4.9-4.7c0.9,0,1.8,0.1,2.7,0.3L377.6,145.6z"/>
	<path class="st7" d="M400.5,165.2c-3.6-3.3-5.4-7-5.4-11.1c0-1,0.1-1.9,0.3-2.8c0.2-1,0.5-1.9,0.9-2.8c0.5-1,1-1.9,1.7-2.8
		c0.8-1,1.6-2,2.5-2.8l1.2,1.3c-2.8,2.6-4.5,6.2-4.5,10c0,1.8,0.4,3.6,1.1,5.2c0.8,1.8,2,3.4,3.4,4.7L400.5,165.2z"/>
	<path class="st19" d="M419.9,148.5h1.8l0.1,1.9c0.3-0.4,0.6-0.7,1-1c0.3-0.2,0.6-0.5,0.9-0.7c0.3-0.2,0.6-0.3,0.9-0.3
		c0.3-0.1,0.7-0.1,1-0.1c1-0.1,2,0.3,2.8,1.1c0.7,0.9,1,2.1,0.9,3.2v7.7h-2v-7.5c0-0.7-0.1-1.4-0.5-2c-0.4-0.5-0.9-0.7-1.5-0.7
		c-0.2,0-0.5,0-0.7,0.1c-0.3,0.1-0.5,0.2-0.8,0.4c-0.3,0.2-0.6,0.5-0.8,0.8c-0.3,0.3-0.6,0.7-1,1.2v7.8h-2L419.9,148.5z"/>
	<path class="st19" d="M443.3,154.3c0,0.9-0.1,1.7-0.4,2.5c-0.2,0.7-0.6,1.4-1.1,2c-0.5,0.5-1.1,1-1.8,1.3c-0.8,0.3-1.6,0.5-2.4,0.4
		c-0.8,0-1.5-0.1-2.3-0.4c-0.6-0.2-1.2-0.6-1.7-1.2c-0.5-0.5-0.9-1.2-1.1-1.9c-0.3-0.8-0.4-1.7-0.4-2.6c0-0.8,0.1-1.7,0.4-2.5
		c0.2-0.7,0.6-1.4,1.1-1.9c0.5-0.5,1.1-1,1.8-1.3c0.8-0.3,1.6-0.5,2.4-0.4c0.8,0,1.5,0.1,2.3,0.4c0.6,0.2,1.2,0.6,1.7,1.2
		c0.5,0.5,0.9,1.2,1.1,1.8C443.3,152.6,443.4,153.5,443.3,154.3z M441.2,154.4c0-0.6-0.1-1.3-0.2-1.9c-0.1-0.5-0.4-1-0.7-1.4
		c-0.3-0.4-0.7-0.6-1.1-0.8c-0.4-0.2-0.9-0.3-1.4-0.3c-1-0.1-2,0.4-2.6,1.3c-0.3,0.4-0.5,0.9-0.6,1.4c-0.1,0.5-0.2,1.1-0.2,1.7
		c0,0.6,0.1,1.3,0.2,1.9c0.1,0.5,0.4,1,0.7,1.4c0.3,0.4,0.7,0.6,1.1,0.8c0.5,0.2,0.9,0.3,1.4,0.3c0.5,0,1.1-0.1,1.6-0.4
		c0.4-0.2,0.8-0.6,1.1-0.9c0.3-0.4,0.5-0.9,0.6-1.4C441.2,155.5,441.3,155,441.2,154.4z"/>
	<path class="st19" d="M456.1,156.1c0,0.7-0.1,1.3-0.4,1.9c-0.3,0.5-0.7,1-1.2,1.4c-0.6,0.4-1.2,0.7-1.9,0.8
		c-0.8,0.2-1.6,0.3-2.5,0.3c-0.4,0-0.8,0-1.2,0s-0.8-0.1-1.2-0.1l-1-0.2c-0.3-0.1-0.6-0.1-0.9-0.2v-2c0.6,0.2,1.3,0.4,2,0.5
		c0.8,0.1,1.7,0.2,2.5,0.2c0.6,0,1.2,0,1.7-0.2c0.4-0.1,0.8-0.2,1.2-0.5c0.3-0.2,0.5-0.5,0.7-0.8c0.1-0.3,0.2-0.7,0.2-1
		c0-0.4-0.1-0.8-0.3-1.1c-0.3-0.3-0.6-0.6-0.9-0.8c-0.4-0.2-0.8-0.5-1.3-0.6l-1.5-0.6c-0.5-0.2-1-0.4-1.5-0.7
		c-0.5-0.2-0.9-0.5-1.3-0.8c-0.4-0.3-0.7-0.7-0.9-1.2c-0.2-0.5-0.4-1-0.3-1.6c0-0.5,0.1-1.1,0.3-1.5c0.2-0.5,0.6-1,1-1.4
		c0.5-0.4,1.1-0.8,1.7-1c0.8-0.3,1.7-0.4,2.6-0.4h0.8c0.3,0,0.6,0.1,0.9,0.1c0.3,0,0.6,0.1,0.9,0.2c0.3,0.1,0.6,0.1,0.8,0.2v1.9
		c-0.6-0.2-1.2-0.3-1.8-0.4c-0.6-0.1-1.2-0.1-1.7-0.1c-0.9-0.1-1.8,0.1-2.6,0.6c-0.5,0.4-0.9,1-0.9,1.6c0,0.4,0.1,0.8,0.4,1.1
		c0.3,0.3,0.6,0.6,0.9,0.8c0.4,0.2,0.8,0.5,1.3,0.6l1.5,0.6c0.5,0.2,1,0.4,1.5,0.7c0.5,0.2,0.9,0.5,1.3,0.9c0.4,0.3,0.7,0.7,0.9,1.2
		C456,155.1,456.1,155.6,456.1,156.1z"/>
	<path class="st19" d="M468.9,160.3h-1.8l-0.1-1.9c-0.3,0.4-0.6,0.7-1,1c-0.3,0.2-0.6,0.5-0.9,0.7c-0.3,0.2-0.6,0.3-0.9,0.3
		c-0.3,0.1-0.7,0.1-1,0.1c-1,0.1-2-0.3-2.8-1.1c-0.7-0.9-1-2.1-0.9-3.2v-7.7h2v7.6c0,1.8,0.7,2.7,2,2.7c0.2,0,0.5,0,0.7-0.1
		c0.3-0.1,0.5-0.2,0.8-0.4c0.3-0.2,0.6-0.5,0.8-0.7c0.3-0.3,0.6-0.7,1-1.2v-7.8h2L468.9,160.3z"/>
	<path class="st19" d="M481.8,159.9c-0.5,0.2-1.1,0.4-1.6,0.4c-0.6,0.1-1.2,0.2-1.7,0.2c-1.6,0.1-3.1-0.4-4.3-1.5
		c-1.1-1.2-1.6-2.8-1.5-4.4c0-0.9,0.1-1.7,0.4-2.5c0.3-0.7,0.7-1.4,1.2-2c0.5-0.5,1.2-1,1.9-1.2c0.8-0.3,1.6-0.4,2.4-0.4
		c0.6,0,1.1,0,1.7,0.1c0.5,0.1,1,0.2,1.5,0.4v2c-0.5-0.3-1-0.5-1.5-0.6c-0.5-0.1-1.1-0.2-1.6-0.2c-0.5,0-1,0.1-1.5,0.3
		c-0.5,0.2-0.9,0.5-1.2,0.9c-0.4,0.4-0.6,0.9-0.8,1.4c-0.2,0.6-0.3,1.2-0.3,1.8c-0.1,1.2,0.3,2.3,1,3.2c0.8,0.7,1.8,1.1,2.9,1.1
		c0.5,0,1.1-0.1,1.6-0.2c0.5-0.1,1-0.3,1.5-0.6L481.8,159.9z"/>
	<path class="st19" d="M495,159.9c-0.5,0.2-1.1,0.4-1.6,0.4c-0.6,0.1-1.1,0.2-1.7,0.2c-1.6,0.1-3.1-0.4-4.3-1.5
		c-1.1-1.2-1.6-2.8-1.5-4.4c0-0.9,0.1-1.7,0.4-2.5c0.3-0.7,0.7-1.4,1.2-2c0.5-0.5,1.2-1,1.9-1.2c0.8-0.3,1.6-0.4,2.4-0.4
		c0.6,0,1.2,0,1.7,0.1c0.5,0.1,1,0.2,1.5,0.4v2c-0.5-0.3-1-0.5-1.5-0.6c-0.5-0.1-1.1-0.2-1.6-0.2c-0.5,0-1,0.1-1.5,0.3
		c-0.5,0.2-0.9,0.5-1.2,0.9c-0.4,0.4-0.6,0.9-0.8,1.4c-0.2,0.6-0.3,1.2-0.3,1.8c-0.1,1.2,0.3,2.3,1,3.2c0.8,0.7,1.8,1.1,2.9,1.1
		c1.1,0,2.2-0.3,3.1-0.8L495,159.9z"/>
	<path class="st19" d="M509,153.8c0,0.3,0,0.5,0,0.7c0,0.2,0,0.4,0,0.6h-8.3c-0.1,1,0.3,2,1,2.8c0.8,0.7,1.8,1.1,2.9,1
		c0.3,0,0.7,0,1,0s0.7-0.1,1-0.1s0.6-0.1,0.9-0.2c0.3,0,0.6-0.1,0.8-0.2v1.7c-0.6,0.2-1.2,0.3-1.9,0.4c-0.7,0.1-1.5,0.1-2.2,0.1
		c-0.9,0-1.8-0.1-2.6-0.4c-0.7-0.2-1.3-0.7-1.8-1.2c-0.5-0.6-0.8-1.2-1-1.9c-0.2-0.8-0.3-1.7-0.3-2.6c0-0.8,0.1-1.6,0.4-2.4
		c0.2-0.8,0.6-1.5,1.1-2.1c1-1.2,2.4-1.9,3.9-1.8c0.7,0,1.5,0.1,2.2,0.4c0.6,0.2,1.2,0.6,1.6,1.1c0.5,0.5,0.8,1.1,1,1.7
		C508.9,152.2,509,153,509,153.8z M506.9,153.5c0-0.5,0-1-0.1-1.4c-0.1-0.4-0.3-0.8-0.6-1.1c-0.3-0.3-0.6-0.6-1-0.7
		c-0.4-0.2-0.9-0.3-1.4-0.3c-0.4,0-0.8,0.1-1.2,0.2c-0.4,0.2-0.7,0.4-1,0.7c-0.3,0.4-0.4,0.7-0.6,1.2c-0.2,0.5-0.3,0.9-0.3,1.4
		L506.9,153.5z"/>
	<path class="st19" d="M521.6,157.1c0,0.4-0.1,0.8-0.2,1.1c-0.1,0.3-0.3,0.6-0.6,0.9c-0.2,0.3-0.5,0.5-0.8,0.6
		c-0.3,0.2-0.7,0.3-1,0.4c-0.4,0.1-0.7,0.2-1.1,0.3c-0.4,0.1-0.7,0.1-1.1,0.1c-0.7,0-1.5,0-2.2-0.1c-0.7-0.1-1.3-0.2-2-0.3v-1.9
		c0.7,0.2,1.4,0.3,2,0.4c0.7,0.1,1.3,0.1,2,0.1c0.7,0,1.5-0.1,2.2-0.4c0.4-0.2,0.7-0.6,0.7-1.1c0-0.2,0-0.4-0.1-0.6
		c-0.1-0.2-0.2-0.4-0.4-0.5c-0.3-0.2-0.6-0.4-0.9-0.5c-0.4-0.2-1-0.4-1.7-0.6c-0.5-0.1-1-0.3-1.5-0.5c-0.4-0.2-0.8-0.4-1.2-0.7
		c-0.3-0.3-0.6-0.6-0.8-1c-0.2-0.4-0.3-0.9-0.3-1.3c0-0.8,0.4-1.6,1-2.2c0.4-0.4,0.9-0.7,1.5-0.8c0.8-0.2,1.6-0.4,2.3-0.3
		c0.5,0,1,0,1.5,0.1c0.6,0.1,1.2,0.1,1.8,0.3v1.8c-0.6-0.1-1.2-0.3-1.8-0.3c-0.5-0.1-1-0.1-1.5-0.1c-0.4,0-0.9,0-1.3,0.1
		c-0.3,0.1-0.6,0.2-0.8,0.3c-0.2,0.1-0.4,0.3-0.5,0.5c-0.1,0.2-0.2,0.4-0.2,0.6c0,0.2,0,0.4,0.1,0.6c0.1,0.2,0.3,0.4,0.5,0.5
		c0.3,0.2,0.6,0.4,0.9,0.5c0.4,0.2,0.9,0.3,1.5,0.5c0.6,0.2,1.2,0.4,1.8,0.6c0.4,0.2,0.8,0.4,1.2,0.7c0.3,0.3,0.5,0.6,0.6,0.9
		C521.5,156.3,521.6,156.7,521.6,157.1z"/>
	<path class="st19" d="M534.8,157.1c0,0.4-0.1,0.8-0.2,1.1c-0.1,0.3-0.3,0.6-0.6,0.9c-0.3,0.3-0.5,0.5-0.8,0.6
		c-0.3,0.2-0.7,0.3-1,0.4c-0.4,0.1-0.7,0.2-1.1,0.3c-0.4,0.1-0.8,0.1-1.1,0.1c-0.7,0-1.5,0-2.2-0.1c-0.7-0.1-1.3-0.2-2-0.3v-1.9
		c0.7,0.2,1.3,0.3,2,0.4c0.7,0.1,1.3,0.1,2,0.1c0.7,0,1.5-0.1,2.2-0.4c0.4-0.2,0.7-0.6,0.7-1.1c0-0.2,0-0.4-0.1-0.6
		c-0.1-0.2-0.2-0.4-0.4-0.5c-0.3-0.2-0.6-0.4-0.9-0.5c-0.4-0.2-1-0.4-1.7-0.6c-0.5-0.1-1-0.3-1.5-0.5c-0.4-0.2-0.8-0.4-1.2-0.7
		c-0.3-0.3-0.6-0.6-0.8-1c-0.2-0.4-0.3-0.8-0.3-1.3c0-0.4,0.1-0.7,0.2-1.1c0.2-0.4,0.4-0.8,0.8-1.1c0.4-0.4,0.9-0.7,1.5-0.8
		c0.8-0.2,1.5-0.4,2.3-0.3c0.5,0,1,0,1.5,0.1c0.6,0.1,1.2,0.1,1.8,0.3v1.8c-0.6-0.1-1.2-0.3-1.8-0.3c-0.5-0.1-1-0.1-1.5-0.1
		c-0.4,0-0.9,0-1.3,0.1c-0.3,0.1-0.6,0.2-0.8,0.3c-0.2,0.1-0.4,0.3-0.5,0.5c-0.2,0.4-0.2,0.8,0,1.2c0.1,0.2,0.3,0.4,0.5,0.5
		c0.3,0.2,0.6,0.4,0.9,0.5c0.4,0.2,0.9,0.3,1.6,0.5c0.6,0.2,1.2,0.4,1.8,0.6c0.4,0.2,0.8,0.4,1.2,0.7c0.3,0.3,0.5,0.6,0.6,0.9
		C534.7,156.3,534.8,156.7,534.8,157.1z"/>
	<path class="st7" d="M554.3,142.9c3.6,3.3,5.4,7,5.4,11.1c0,0.9-0.1,1.8-0.3,2.6c-0.2,1-0.5,1.9-0.9,2.8c-0.5,1-1,2-1.7,2.9
		c-0.8,1.1-1.7,2.1-2.6,3L553,164c1.4-1.4,2.6-3,3.4-4.7c0.8-1.6,1.1-3.4,1.2-5.2c-0.1-3.8-1.7-7.4-4.6-10L554.3,142.9z"/>
	<path class="st7" d="M586.9,165.1H586c-1.2,0.1-2.4-0.3-3.4-1.1c-0.8-0.9-1.2-2-1.1-3.2v-4c0-0.3,0-0.7-0.1-1
		c-0.1-0.3-0.2-0.5-0.5-0.8c-0.2-0.2-0.5-0.4-0.9-0.5c-0.4-0.1-0.9-0.2-1.3-0.2h-0.5v-1.7h0.5c0.5,0,0.9,0,1.4-0.1
		c0.3-0.1,0.6-0.2,0.8-0.4c0.2-0.2,0.4-0.5,0.4-0.7c0.1-0.3,0.1-0.7,0.1-1v-2.8c0-0.6,0.1-1.2,0.2-1.8c0.1-0.5,0.4-1,0.8-1.3
		c0.4-0.4,0.9-0.7,1.4-0.9c0.7-0.2,1.4-0.3,2.1-0.3h0.9v1.6h-0.7c-1.8,0-2.7,0.9-2.7,2.6v2.7c0,1.9-0.8,3-2.5,3.2
		c1.7,0.2,2.5,1.2,2.5,3.2v4c-0.2,1.3,0.7,2.5,2,2.7c0.2,0,0.4,0,0.7,0h0.7L586.9,165.1z"/>
	<path class="st19" d="M614.1,160.1c-0.5,0.1-0.9,0.2-1.4,0.2c-0.5,0-1,0.1-1.5,0.1c-1.2,0.1-2.4-0.3-3.3-1
		c-0.8-0.8-1.2-1.9-1.1-3.1v-6.1h-3.3v-1.7h3.3v-3.2l2-0.5v3.8h5.3v1.7h-5.3v6c0,0.7,0.2,1.4,0.7,1.9c0.6,0.5,1.3,0.7,2,0.6
		c0.4,0,0.8,0,1.2-0.1c0.5-0.1,0.9-0.2,1.4-0.3L614.1,160.1z"/>
	<path class="st19" d="M618.3,148.5h1.9l0.1,2.2c0.6-0.7,1.3-1.3,2.1-1.8c0.6-0.4,1.3-0.5,2-0.6c1.1-0.1,2.1,0.4,2.8,1.2
		c0.7,1,1,2.3,0.9,3.5h-2.1c0.1-0.8-0.1-1.6-0.5-2.2c-0.3-0.5-0.9-0.7-1.4-0.7c-0.3,0-0.6,0.1-0.8,0.1c-0.3,0.1-0.6,0.3-0.9,0.5
		c-0.3,0.2-0.6,0.5-0.9,0.8c-0.4,0.4-0.7,0.8-1.1,1.2v7.6h-2.1L618.3,148.5z"/>
	<path class="st19" d="M641.5,148.5l-4,10.5c-0.4,1-0.8,1.9-1.3,2.8c-0.4,0.7-0.9,1.3-1.5,1.9c-0.5,0.5-1.1,0.9-1.7,1.1
		c-0.7,0.2-1.4,0.4-2.1,0.4h-0.5h-0.5v-1.9l0.6,0.1c0.2,0,0.4,0,0.6,0c0.4,0,0.7-0.1,1-0.2c0.3-0.1,0.6-0.3,0.9-0.5
		c0.3-0.3,0.6-0.6,0.8-1c0.3-0.4,0.6-0.9,0.8-1.4l-4.7-11.8h2.3l3,7.8l0.6,1.8l0.7-1.9l2.8-7.7L641.5,148.5z"/>
	<path class="st19" d="M655.4,160.3h-2.3l-1.1-3.3h-6.4l-1.1,3.3h-2.2l5.1-15.3h2.9L655.4,160.3z M651.5,155.1l-2.6-8.2l-2.6,8.2
		H651.5z"/>
	<path class="st19" d="M665.9,150.2c0.2,0.3,0.4,0.6,0.5,1c0.1,0.4,0.2,0.8,0.2,1.2c0,0.6-0.1,1.1-0.3,1.7c-0.2,0.5-0.6,0.9-1,1.3
		c-0.4,0.4-0.9,0.7-1.5,0.8c-0.6,0.2-1.2,0.3-1.9,0.3c-0.5,0-0.9-0.1-1.4-0.2c-0.3-0.1-0.7-0.2-1-0.4c-0.1,0.2-0.3,0.4-0.4,0.6
		c-0.1,0.2-0.2,0.4-0.2,0.7c0,0.3,0.2,0.6,0.4,0.7c0.3,0.2,0.7,0.3,1.1,0.3l3.1,0.1c0.5,0,1.1,0.1,1.6,0.2c0.5,0.1,0.9,0.3,1.3,0.6
		c0.3,0.2,0.6,0.6,0.8,0.9c0.2,0.4,0.3,0.8,0.3,1.3c0,0.5-0.1,1-0.3,1.5c-0.2,0.5-0.6,0.9-1,1.2c-0.5,0.4-1.2,0.7-1.8,0.8
		c-0.8,0.2-1.7,0.3-2.6,0.3c-0.8,0-1.6-0.1-2.4-0.2c-0.6-0.1-1.1-0.3-1.7-0.6c-0.4-0.2-0.7-0.6-0.9-1c-0.2-0.4-0.3-0.8-0.3-1.2
		c0-0.5,0.1-1,0.4-1.5c0.3-0.5,0.7-0.9,1.2-1.2c-0.2-0.1-0.4-0.2-0.5-0.4c-0.1-0.1-0.3-0.3-0.4-0.5c-0.1-0.2-0.2-0.3-0.2-0.5
		c0-0.2-0.1-0.4-0.1-0.6c0-0.5,0.1-1,0.4-1.4c0.2-0.4,0.5-0.8,0.8-1.2c-0.1-0.2-0.3-0.3-0.4-0.5c-0.1-0.2-0.2-0.4-0.3-0.6
		c-0.1-0.2-0.1-0.4-0.2-0.6c0-0.3-0.1-0.5-0.1-0.8c0-0.6,0.1-1.1,0.3-1.7c0.2-0.5,0.5-0.9,0.9-1.3c0.4-0.4,0.9-0.7,1.5-0.8
		c0.9-0.3,1.8-0.4,2.7-0.2c0.2,0,0.5,0.1,0.7,0.1h4.3v1.7L665.9,150.2z M658.8,162c0,0.6,0.3,1,0.9,1.2c0.8,0.3,1.6,0.4,2.4,0.4
		c0.6,0,1.1,0,1.6-0.2c0.4-0.1,0.7-0.2,1.1-0.5c0.2-0.2,0.5-0.4,0.6-0.7c0.1-0.2,0.2-0.5,0.2-0.8c0-0.4-0.2-0.8-0.6-1.1
		c-0.6-0.3-1.2-0.4-1.8-0.4l-3.1-0.1c-0.2,0.1-0.4,0.3-0.6,0.5c-0.2,0.1-0.3,0.3-0.4,0.5c-0.1,0.2-0.2,0.3-0.2,0.5
		C658.8,161.7,658.8,161.8,658.8,162z M659.4,152.4c0,0.3,0.1,0.7,0.2,1c0.1,0.3,0.3,0.6,0.5,0.8c0.2,0.2,0.5,0.4,0.8,0.5
		c0.7,0.3,1.4,0.3,2.1,0c0.3-0.1,0.6-0.3,0.8-0.6c0.2-0.2,0.4-0.5,0.5-0.8c0.1-0.3,0.2-0.7,0.2-1c0-0.3-0.1-0.7-0.2-1
		c-0.1-0.3-0.3-0.6-0.5-0.8c-0.2-0.2-0.5-0.4-0.8-0.5c-0.3-0.1-0.7-0.2-1-0.2c-0.4,0-0.7,0.1-1.1,0.2c-0.3,0.1-0.6,0.3-0.8,0.6
		c-0.2,0.2-0.4,0.5-0.5,0.8C659.5,151.7,659.4,152,659.4,152.4z"/>
	<path class="st19" d="M678.2,160.3v-1.6c-0.6,0.6-1.3,1-2,1.4c-0.7,0.3-1.4,0.4-2.1,0.4c-0.6,0-1.2-0.1-1.7-0.2
		c-0.4-0.2-0.8-0.4-1.2-0.7c-0.3-0.3-0.5-0.7-0.7-1.1c-0.1-0.4-0.2-0.9-0.2-1.3c0-1.1,0.4-2.1,1.3-2.8c1.2-0.7,2.5-1.1,3.9-1h2.5v-1
		c0-0.6-0.2-1.2-0.7-1.7c-0.6-0.5-1.3-0.7-2-0.6c-0.7,0-1.3,0.1-2,0.2c-0.7,0.2-1.4,0.4-2,0.6v-1.8c0.3-0.1,0.5-0.2,0.9-0.3
		s0.7-0.2,1-0.2c0.3-0.1,0.7-0.1,1.1-0.2c0.4,0,0.8-0.1,1.2-0.1c0.6,0,1.3,0.1,1.9,0.2c0.5,0.1,1,0.4,1.4,0.7
		c0.4,0.3,0.7,0.7,0.9,1.2c0.2,0.5,0.3,1.1,0.3,1.7v8.1L678.2,160.3z M678,155h-2.6c-0.4,0-0.9,0-1.3,0.1c-0.3,0.1-0.6,0.2-0.9,0.4
		c-0.2,0.2-0.4,0.4-0.5,0.7c-0.1,0.3-0.2,0.6-0.2,0.9c0,0.2,0,0.4,0.1,0.6c0.1,0.2,0.2,0.4,0.3,0.6c0.2,0.2,0.4,0.3,0.6,0.4
		c0.3,0.1,0.6,0.2,0.9,0.1c0.6,0,1.1-0.2,1.6-0.4c0.7-0.4,1.4-0.8,1.9-1.4V155z"/>
	<path class="st19" d="M687.8,150.2h-3.5v-1.7h5.5v10.1h3.5v1.7H684v-1.7h3.9L687.8,150.2z M688.5,143.6c0.2,0,0.4,0,0.6,0.1
		c0.2,0.1,0.4,0.2,0.5,0.3c0.1,0.1,0.3,0.3,0.3,0.5c0.2,0.4,0.2,0.9,0,1.2c-0.2,0.4-0.5,0.7-0.8,0.9c-0.4,0.2-0.9,0.2-1.3,0
		c-0.4-0.2-0.7-0.5-0.8-0.9c-0.2-0.4-0.2-0.9,0-1.2c0.1-0.2,0.2-0.4,0.3-0.5c0.1-0.1,0.3-0.3,0.5-0.3
		C688.1,143.6,688.3,143.6,688.5,143.6z"/>
	<path class="st19" d="M697,148.5h1.8l0.1,1.9c0.3-0.4,0.6-0.7,1-1c0.3-0.2,0.6-0.5,0.9-0.7c0.3-0.2,0.6-0.3,0.9-0.3
		c0.3-0.1,0.7-0.1,1-0.1c1-0.1,2,0.3,2.8,1.1c0.7,0.9,1,2.1,0.9,3.2v7.7h-2v-7.5c0-0.7-0.1-1.4-0.5-2c-0.4-0.5-0.9-0.7-1.5-0.7
		c-0.2,0-0.5,0-0.7,0.1c-0.3,0.1-0.5,0.2-0.8,0.4c-0.3,0.2-0.6,0.5-0.8,0.8c-0.4,0.4-0.7,0.8-1,1.2v7.8h-2L697,148.5z"/>
	<path class="st7" d="M717.2,165.2c-3.6-3.3-5.4-7-5.4-11.1c0-2,0.4-3.9,1.2-5.7c0.5-1,1-1.9,1.7-2.8c0.8-1,1.6-2,2.5-2.8l1.2,1.3
		c-2.8,2.6-4.5,6.2-4.5,10c0,1.8,0.4,3.6,1.2,5.2c0.8,1.8,2,3.4,3.4,4.7L717.2,165.2z"/>
	<path class="st7" d="M725.8,142.9c3.6,3.3,5.4,7,5.4,11.1c0,0.9-0.1,1.8-0.3,2.6c-0.2,1-0.5,1.9-0.9,2.8c-0.5,1-1,2-1.7,2.9
		c-0.8,1.1-1.7,2.1-2.6,3l-1.2-1.2c1.4-1.4,2.6-3,3.4-4.8c0.7-1.6,1.1-3.4,1.1-5.2c-0.1-3.8-1.7-7.4-4.5-10L725.8,142.9z"/>
	<path class="st7" d="M737.6,162.7c0.4,0,0.8,0,1.2-0.1c0.4-0.1,0.7-0.2,1-0.4c0.3-0.2,0.5-0.4,0.7-0.6c0.2-0.2,0.3-0.5,0.3-0.8
		c0-0.3,0-0.6-0.2-0.8c-0.1-0.2-0.2-0.4-0.4-0.6c-0.1-0.2-0.3-0.4-0.4-0.6c-0.1-0.2-0.2-0.5-0.2-0.8c0-0.2,0-0.3,0.1-0.5
		c0.1-0.2,0.2-0.4,0.3-0.5c0.1-0.2,0.3-0.3,0.5-0.4c0.2-0.1,0.5-0.1,0.7-0.1c0.3,0,0.5,0.1,0.8,0.2c0.3,0.1,0.5,0.3,0.7,0.5
		c0.2,0.3,0.4,0.6,0.5,0.9c0.1,0.4,0.2,0.8,0.2,1.2c0,0.6-0.1,1.3-0.3,1.9c-0.2,0.6-0.6,1.1-1.1,1.6c-0.5,0.5-1.1,0.9-1.8,1.1
		c-0.8,0.3-1.6,0.4-2.5,0.4L737.6,162.7z M741.3,148.3c0.2,0,0.5,0,0.7,0.1c0.4,0.2,0.8,0.6,1,1c0.2,0.4,0.2,0.9,0,1.4
		c-0.1,0.2-0.2,0.4-0.4,0.6c-0.2,0.2-0.4,0.3-0.6,0.4c-0.4,0.2-0.9,0.2-1.4,0c-0.2-0.1-0.4-0.2-0.6-0.4c-0.5-0.5-0.7-1.3-0.4-2
		c0.1-0.2,0.2-0.4,0.4-0.6c0.2-0.2,0.3-0.3,0.6-0.4C740.9,148.4,741.1,148.3,741.3,148.3z"/>
	<path class="st7" d="M763.8,143.3h0.9c1.2-0.1,2.4,0.3,3.3,1.1c0.8,0.9,1.2,2,1.1,3.2v2.7c0,0.3,0,0.7,0.1,1
		c0.1,0.3,0.2,0.6,0.5,0.8c0.2,0.2,0.5,0.4,0.9,0.5c0.4,0.1,0.9,0.2,1.3,0.2h0.5v1.6h-0.5c-0.5,0-0.9,0-1.4,0.1
		c-0.3,0.1-0.6,0.2-0.8,0.4c-0.2,0.2-0.3,0.5-0.4,0.7c-0.1,0.3-0.1,0.7-0.1,1.1v4.1c0,0.6-0.1,1.2-0.2,1.8c-0.1,0.5-0.4,1-0.8,1.3
		c-0.4,0.4-0.9,0.7-1.4,0.9c-0.7,0.2-1.4,0.3-2.1,0.3h-0.9v-1.6h0.7c1.8,0,2.7-0.9,2.7-2.6v-4c0-1.9,0.8-3,2.5-3.2
		c-1.7-0.2-2.5-1.3-2.5-3.2v-2.7c0.2-1.3-0.7-2.5-2-2.7c-0.2,0-0.4,0-0.7,0h-0.7L763.8,143.3z"/>
	<path class="st7" d="M777.2,162.7c0.4,0,0.8,0,1.2-0.1c0.4-0.1,0.7-0.2,1-0.4c0.3-0.2,0.5-0.4,0.7-0.6c0.2-0.3,0.3-0.5,0.2-0.8
		c0-0.3,0-0.6-0.2-0.8c-0.1-0.2-0.2-0.4-0.4-0.6c-0.1-0.2-0.3-0.4-0.4-0.6c-0.1-0.2-0.2-0.5-0.2-0.8c0-0.2,0-0.3,0.1-0.5
		c0.1-0.2,0.2-0.4,0.3-0.5c0.1-0.1,0.3-0.3,0.5-0.4c0.2-0.1,0.5-0.1,0.7-0.1c0.3,0,0.5,0.1,0.8,0.2c0.3,0.1,0.5,0.3,0.7,0.5
		c0.2,0.3,0.4,0.6,0.5,0.9c0.1,0.4,0.2,0.8,0.2,1.2c0,0.6-0.1,1.3-0.4,1.9c-0.2,0.6-0.6,1.1-1.1,1.6c-0.5,0.5-1.1,0.9-1.8,1.1
		c-0.8,0.3-1.6,0.4-2.5,0.4L777.2,162.7z M780.9,148.3c0.2,0,0.5,0,0.7,0.1c0.4,0.2,0.8,0.6,1,1c0.2,0.4,0.2,0.9,0,1.4
		c-0.1,0.2-0.2,0.4-0.4,0.6c-0.2,0.2-0.4,0.3-0.6,0.4c-0.4,0.2-0.9,0.2-1.4,0c-0.5-0.2-0.8-0.5-1-1c-0.2-0.4-0.2-0.9,0-1.4
		c0.1-0.2,0.2-0.4,0.4-0.6c0.2-0.2,0.4-0.3,0.6-0.4C780.4,148.4,780.7,148.3,780.9,148.3L780.9,148.3z"/>
</g>
<path class="st9" d="M206.8,209.1c0.2,9.4-5.8,17.8-14.6,20.9c-1.1,0.2-1.5-0.5-1.5-1c0-0.7,0-4.4,0-7.3c0.1-1.5-0.4-2.9-1.5-4
	c4.9-0.6,10-1.2,10-9.6c0-2.4-0.9-3.6-2.2-5.1c0.7-1.9,0.6-4-0.2-5.9c-1.8-0.6-6,2.4-6,2.4c-3.6-1-7.4-1-11,0c0,0-4.2-2.9-6-2.4
	c-0.8,1.9-0.9,4-0.2,5.9c-1.4,1.3-2.2,3.2-2.1,5.1c0,8.4,4.9,9.1,9.8,9.6c-0.8,0.8-1.3,1.8-1.4,2.9c-1.2,0.6-4.4,1.6-6.4-1.8
	c-0.7-1.2-2-2.1-3.4-2.2c-2.1,0-0.1,1.3-0.1,1.3c1.4,0.6,2.4,3.2,2.4,3.2c1.3,3.9,7.4,2.6,7.4,2.6c0,1.8,0,4.8,0,5.4
	s-0.4,1.2-1.5,1.1c-8.9-3.1-14.9-11.5-14.8-20.9c-0.2-11.6,9-21.1,20.6-21.3c0.3,0,0.5,0,0.8,0C197,187.8,206.8,197,206.8,209.1z
	 M171.4,217.1c0.2,0.1,0.3,0.2,0.2,0.3c-0.1,0.1-0.2,0.2-0.3,0.1c0,0,0,0,0,0c-0.2-0.1-0.3-0.2-0.2-0.3S171.3,217.1,171.4,217.1
	L171.4,217.1z M172.4,217.9c0.1,0.2,0.2,0.4,0.1,0.4s-0.3,0.1-0.4-0.1s-0.2-0.4-0.1-0.4S172.3,217.8,172.4,217.9L172.4,217.9z
	 M173.4,219.1c0.1,0.2,0.1,0.4,0,0.5c-0.1,0.1-0.4,0-0.5-0.2s-0.1-0.4,0-0.5S173.3,219,173.4,219.1L173.4,219.1z M174.4,220.3
	c0.2,0.1,0.2,0.4,0.1,0.5c-0.1,0.1-0.4,0.1-0.6-0.1s-0.2-0.4-0.1-0.5S174.3,220.2,174.4,220.3L174.4,220.3z M175.8,221.1
	c0.3,0.1,0.4,0.3,0.4,0.4c-0.1,0.2-0.3,0.3-0.5,0.2c0,0,0,0,0,0c-0.3,0-0.4-0.2-0.4-0.4C175.4,221.1,175.6,221.1,175.8,221.1
	L175.8,221.1z M177.5,222c-0.3,0-0.5-0.1-0.5-0.3s0.2-0.3,0.5-0.3s0.5,0.1,0.5,0.3S177.8,222.1,177.5,222L177.5,222z M179.6,221.4
	c0,0.2-0.1,0.3-0.4,0.4s-0.5-0.1-0.5-0.2s0.1-0.4,0.4-0.4S179.6,221.3,179.6,221.4L179.6,221.4z"/>
</svg>
